<svg version="1.1" id="Layer_1" xmlns="http://www.w3.org/2000/svg" xmlns:xlink="http://www.w3.org/1999/xlink" x="0px" y="0px"
	 width="100%" viewBox="0 0 2000 2000" enable-background="new 0 0 2000 2000" xml:space="preserve">
<path fill="#845EF7" opacity="1.000000" stroke="none" 
	d="
M938.000000,1.000003 
	C979.687561,1.000000 1021.375183,1.000000 1063.220215,1.369006 
	C1064.230225,2.155547 1065.058228,2.871737 1065.939209,2.944504 
	C1074.955688,3.689272 1083.987549,4.251106 1093.001831,5.019341 
	C1103.789917,5.938733 1114.618530,6.622718 1125.333496,8.103933 
	C1142.115967,10.423898 1158.877808,13.000265 1175.538330,16.066362 
	C1195.980835,19.828480 1216.473267,23.537563 1236.653076,28.461952 
	C1274.749146,37.758350 1312.521484,48.383060 1348.949463,63.059174 
	C1379.312256,75.291740 1409.908447,87.196907 1439.311890,101.488304 
	C1469.093506,115.963524 1497.851929,132.653625 1526.456177,149.402390 
	C1544.942505,160.226791 1562.776978,172.307159 1580.121216,184.902100 
	C1600.191528,199.476746 1619.695923,214.876038 1638.898438,230.586761 
	C1655.180908,243.908463 1671.430054,257.428894 1686.362671,272.206696 
	C1710.876587,296.466339 1734.390503,321.741150 1758.139404,346.765076 
	C1763.185059,352.081543 1767.428955,358.158844 1772.057129,364.261536 
	C1773.648682,369.324219 1775.307129,373.939148 1781.058594,374.956940 
	C1781.023315,374.975189 1781.060303,374.904907 1781.072876,375.265900 
	C1782.089355,376.731964 1783.093384,377.837006 1784.062744,378.957916 
	C1784.028198,378.973755 1784.060181,378.904877 1784.072754,379.281647 
	C1785.422485,381.086212 1786.759521,382.513977 1788.062012,383.958069 
	C1788.027344,383.974396 1788.060059,383.905243 1788.055542,384.297791 
	C1788.244751,387.452789 1788.717041,389.939087 1792.622559,389.205017 
	C1792.762573,389.248871 1792.843384,389.530945 1792.807739,389.878906 
	C1793.458984,390.666504 1794.145752,391.106140 1794.891602,391.687195 
	C1794.950562,391.828583 1794.805542,392.098511 1794.711548,392.454559 
	C1795.116577,393.526398 1795.615479,394.242218 1796.388672,395.071289 
	C1796.789307,395.751617 1796.915649,396.318665 1797.098633,397.230835 
	C1798.141602,398.703308 1799.128052,399.830627 1800.344116,401.023315 
	C1800.868042,401.273376 1801.024170,401.539154 1801.065186,402.229919 
	C1801.763550,403.368500 1802.438965,404.163208 1803.344238,405.023285 
	C1803.868042,405.273376 1804.024170,405.539154 1804.065186,406.229980 
	C1804.763428,407.368622 1805.438965,408.163300 1806.341064,408.987823 
	C1806.567505,409.017639 1806.999268,409.166992 1807.029053,409.521301 
	C1809.744141,413.569672 1812.429321,417.263763 1815.422607,421.114014 
	C1817.834595,424.142059 1819.938354,427.013977 1822.057373,430.263306 
	C1822.748779,432.309357 1823.174927,434.141144 1824.140259,435.621399 
	C1833.374756,449.781525 1842.700439,463.882263 1852.071045,478.347137 
	C1855.560181,484.611847 1858.899658,490.577911 1862.480225,496.395538 
	C1863.026001,497.282501 1864.687622,497.482788 1865.910400,498.366241 
	C1868.116699,502.420502 1870.263306,506.099091 1872.369995,509.800476 
	C1874.595459,513.710938 1876.813599,517.626343 1878.974854,521.572388 
	C1880.140503,523.700928 1881.151733,525.913452 1882.285034,528.060486 
	C1883.844971,531.015808 1885.454224,533.945068 1887.035645,537.296997 
	C1887.655273,540.076843 1887.948853,542.600952 1888.970215,544.784668 
	C1892.056396,551.382812 1895.273682,557.931641 1898.767822,564.320251 
	C1899.953735,566.488525 1902.116821,568.122314 1903.990234,570.327393 
	C1910.997070,585.539246 1918.740967,600.086792 1924.511230,615.379089 
	C1936.569824,647.336121 1948.366333,679.436646 1958.772949,711.957397 
	C1966.414429,735.836548 1971.913574,760.419067 1977.898560,784.803223 
	C1981.109009,797.883240 1983.624023,811.155396 1985.916260,824.433472 
	C1988.301514,838.250854 1990.114380,852.169434 1992.040039,866.062866 
	C1993.789062,878.681763 1995.619507,891.299072 1996.916382,903.968018 
	C1997.989014,914.447388 1998.292603,925.004272 1999.083374,935.515808 
	C1999.148926,936.387024 2000.334717,937.173950 2001.000000,938.000000 
	C2001.000000,979.687561 2001.000000,1021.375183 2000.630127,1063.222656 
	C1999.840210,1064.902222 1999.166016,1066.403564 1999.055420,1067.945312 
	C1998.853271,1070.763794 1999.227783,1073.631592 1998.936523,1076.434692 
	C1997.363403,1091.581787 1995.712280,1106.721436 1993.983643,1121.851807 
	C1992.721436,1132.898560 1991.688721,1143.992554 1989.852905,1154.948120 
	C1987.248047,1170.492432 1983.919678,1185.914307 1981.040771,1201.414429 
	C1974.665405,1235.739380 1965.885864,1269.466675 1954.972046,1302.591553 
	C1946.815063,1327.348755 1938.256958,1352.013916 1928.708252,1376.259644 
	C1920.988037,1395.862671 1911.523926,1414.778809 1902.509888,1434.093628 
	C1900.997314,1435.712769 1899.568237,1437.108521 1898.662842,1438.786743 
	C1895.748535,1444.188965 1892.877075,1449.625977 1890.300903,1455.193604 
	C1889.162109,1457.654907 1888.772705,1460.463013 1888.016113,1463.479614 
	C1884.697510,1469.911133 1881.406006,1475.976685 1877.769531,1482.108887 
	C1874.546265,1483.608643 1872.338623,1485.364990 1874.062500,1489.343262 
	C1873.711304,1490.110596 1873.412842,1490.576416 1872.783936,1491.107422 
	C1871.674194,1492.795654 1870.894653,1494.418579 1870.057129,1496.410400 
	C1868.371094,1499.533447 1866.742798,1502.287842 1864.772217,1505.112427 
	C1861.129150,1509.776489 1857.731445,1514.305786 1854.604980,1519.015381 
	C1853.936768,1520.022217 1854.252808,1521.682495 1854.058350,1523.405029 
	C1850.372314,1529.526245 1846.743286,1535.284180 1842.773804,1541.111328 
	C1840.167847,1543.749878 1837.550171,1546.090210 1835.703613,1548.931763 
	C1830.317993,1557.218750 1825.240479,1565.705811 1819.901978,1574.433838 
	C1817.356445,1578.484375 1815.150391,1582.363037 1812.510376,1585.919678 
	C1803.393677,1598.201660 1794.190918,1610.421265 1784.886597,1622.561768 
	C1780.605835,1628.147583 1776.140991,1633.604980 1771.537720,1638.928833 
	C1757.984131,1654.604126 1745.080688,1670.937500 1730.527832,1685.631958 
	C1706.017212,1710.380737 1680.506104,1734.143555 1655.239258,1758.135132 
	C1649.922607,1763.183594 1643.842529,1767.427734 1637.741211,1772.057739 
	C1632.944458,1773.951050 1628.026855,1775.264771 1627.042480,1781.058350 
	C1627.023926,1781.023193 1627.094360,1781.060181 1626.733398,1781.072876 
	C1625.267456,1782.089478 1624.162476,1783.093384 1623.041382,1784.062744 
	C1623.025269,1784.028320 1623.094360,1784.060181 1622.717651,1784.072876 
	C1620.913330,1785.422607 1619.485718,1786.759644 1618.041504,1788.062012 
	C1618.024902,1788.027466 1618.094238,1788.060181 1617.704468,1788.055420 
	C1613.903687,1788.016235 1612.081665,1789.636353 1611.908325,1793.424072 
	C1610.220459,1794.503784 1608.667236,1795.273071 1606.745117,1796.058105 
	C1604.269897,1797.748291 1602.163574,1799.422607 1600.041138,1801.062622 
	C1600.025146,1801.028320 1600.094116,1801.059937 1599.728027,1801.072266 
	C1597.921997,1802.427734 1596.482056,1803.770996 1594.947266,1805.381836 
	C1594.273071,1806.113647 1593.693481,1806.578003 1592.741943,1807.058838 
	C1588.593994,1809.755005 1584.818115,1812.434692 1580.918945,1815.397217 
	C1579.901855,1816.134155 1579.008057,1816.588135 1577.770264,1817.065063 
	C1576.631592,1817.763428 1575.836914,1818.438965 1574.933350,1819.397705 
	C1573.920898,1820.467896 1573.017456,1821.255005 1571.736572,1822.057373 
	C1569.690552,1822.748901 1567.858765,1823.174805 1566.378540,1824.140137 
	C1552.218384,1833.374634 1538.117676,1842.700439 1523.652344,1852.071045 
	C1517.386963,1855.560425 1511.420898,1858.900391 1505.603027,1862.481079 
	C1504.716675,1863.026611 1504.516846,1864.687866 1503.623047,1865.905518 
	C1500.621826,1867.076172 1497.485718,1867.597412 1495.469238,1869.382935 
	C1489.820679,1874.384644 1483.379761,1877.655762 1476.314575,1879.958740 
	C1475.576050,1880.199463 1474.979126,1880.856567 1474.295410,1881.287109 
	C1471.239258,1883.212158 1468.175415,1885.125000 1464.702881,1887.035645 
	C1462.521362,1887.363525 1460.579590,1887.340210 1459.010010,1888.092773 
	C1451.090698,1891.890259 1443.219849,1895.798218 1435.455566,1899.901245 
	C1434.013794,1900.663086 1433.137329,1902.495361 1431.666260,1903.995483 
	C1425.546997,1906.949707 1419.781860,1909.785767 1413.955933,1912.491455 
	C1412.970581,1912.949097 1411.709961,1912.778687 1410.602295,1913.017700 
	C1409.353394,1913.287231 1408.062866,1913.537720 1406.913452,1914.064575 
	C1401.955811,1916.337036 1397.043091,1918.707520 1391.709717,1921.041748 
	C1382.747681,1924.172729 1374.175171,1927.265259 1365.658691,1930.504517 
	C1364.917603,1930.786377 1364.544067,1932.034180 1363.616211,1932.905762 
	C1361.438110,1933.974976 1359.748535,1935.323608 1357.827637,1935.896851 
	C1353.573486,1937.166016 1349.187012,1937.985229 1344.892334,1939.129272 
	C1343.870605,1939.401611 1343.029663,1940.295410 1342.047729,1940.787720 
	C1340.404175,1941.611572 1338.713989,1942.342529 1336.754395,1942.895508 
	C1335.347656,1942.616577 1334.122192,1942.222168 1333.128784,1942.543945 
	C1322.728149,1945.915283 1312.344604,1949.343750 1302.018066,1952.933838 
	C1300.820679,1953.350220 1299.996704,1954.840576 1298.662354,1955.997803 
	C1295.367310,1956.740479 1292.307739,1957.015869 1289.475342,1957.967285 
	C1285.369995,1959.346069 1281.543091,1962.140137 1277.390503,1962.652222 
	C1271.384521,1963.392944 1265.908691,1965.402832 1260.298218,1967.249878 
	C1258.933228,1967.699097 1257.464478,1967.833496 1255.738281,1967.889526 
	C1248.311890,1969.178833 1241.185303,1970.666626 1234.082764,1972.261230 
	C1233.627075,1972.363525 1233.356323,1973.290039 1232.628296,1974.026123 
	C1227.312012,1975.473267 1222.401855,1976.893677 1217.413574,1977.941650 
	C1210.290283,1979.437744 1203.119873,1980.718506 1195.951294,1981.988281 
	C1184.267944,1984.057495 1172.600342,1986.246582 1160.870361,1988.015381 
	C1144.259766,1990.520142 1127.609009,1992.769043 1110.951538,1994.944092 
	C1106.827271,1995.482544 1102.588989,1995.100098 1098.442261,1995.524170 
	C1092.082642,1996.174316 1085.764282,1997.220337 1079.411011,1997.945557 
	C1078.063232,1998.099243 1076.633789,1997.388306 1075.253418,1997.432251 
	C1070.685425,1997.577637 1066.093506,1997.662231 1061.573486,1998.251587 
	C1059.957153,1998.462280 1058.519409,2000.044189 1057.000000,2001.000000 
	C1053.307129,2001.000000 1049.614136,2001.000000 1045.408447,2000.630127 
	C1042.027588,1997.085693 1039.521973,1997.294067 1036.000000,2001.000000 
	C1013.312439,2001.000000 990.624878,2001.000000 967.327454,2000.668823 
	C961.815002,1996.911499 959.012573,1997.102539 957.000000,2001.000000 
	C953.307068,2001.000000 949.614197,2001.000000 945.801086,2000.694946 
	C944.864807,1999.929932 944.068970,1999.113770 943.229309,1999.065918 
	C935.654053,1998.634155 928.063354,1998.456421 920.492432,1997.968140 
	C911.954102,1997.417236 903.406738,1996.842163 894.907959,1995.881958 
	C882.096619,1994.434570 869.298767,1992.814941 856.546326,1990.923462 
	C850.672058,1990.052124 844.919006,1988.363525 838.750610,1986.893555 
	C835.358398,1985.936646 832.369385,1984.768799 829.285583,1984.405518 
	C823.539185,1983.728271 817.737671,1983.519287 811.632446,1983.063965 
	C810.870667,1982.952637 810.435547,1982.892822 809.889526,1982.566406 
	C808.838867,1982.238281 807.898926,1982.176880 806.535278,1982.065552 
	C805.284912,1982.006958 804.432007,1982.129272 803.635742,1981.969238 
	C797.017395,1980.640137 790.381592,1979.379272 783.807556,1977.854126 
	C778.828857,1976.698853 773.933044,1975.186523 768.863281,1973.514648 
	C762.043823,1971.167969 755.376404,1969.086914 748.658020,1967.185913 
	C747.906250,1966.973145 746.865662,1967.781128 745.561035,1968.065674 
	C739.990662,1966.657227 734.773315,1965.446411 729.662048,1963.887451 
	C726.370605,1962.883423 723.312683,1961.103027 720.013428,1960.137695 
	C713.391968,1958.200195 706.676819,1956.582886 699.871826,1954.521973 
	C699.007935,1953.570679 698.375854,1952.637207 697.521179,1952.336670 
	C688.941833,1949.318359 680.345642,1946.343506 671.696045,1943.535767 
	C670.598267,1943.179443 669.166870,1943.851074 667.502686,1944.025513 
	C661.483032,1941.911621 655.839844,1939.847290 650.222473,1937.714966 
	C647.118408,1936.536743 644.064026,1935.228271 640.975830,1934.007568 
	C635.974792,1932.030762 630.964417,1930.077637 625.847473,1927.786377 
	C619.157288,1924.301514 612.660095,1920.952271 605.958557,1918.079834 
	C603.159546,1916.880005 599.926086,1916.693481 596.521973,1916.017578 
	C594.482056,1915.012329 592.879883,1913.882935 591.126648,1913.085327 
	C582.773743,1909.285278 574.379761,1905.575317 565.906494,1901.510010 
	C558.274109,1895.557617 550.287720,1890.848022 540.521790,1889.016357 
	C524.090820,1880.031128 508.024323,1871.072876 491.890289,1861.766479 
	C489.819183,1857.164185 486.016235,1856.226562 481.603149,1855.996216 
	C481.067719,1856.024170 480.774231,1855.968994 480.551422,1855.539307 
	C480.057220,1854.870605 479.508026,1854.493164 478.657288,1854.062744 
	C477.889740,1853.711426 477.423767,1853.412964 476.888428,1852.773682 
	C474.163361,1848.627075 470.873749,1845.906982 465.940491,1846.044800 
	C465.975006,1846.028564 465.942688,1846.097778 465.834351,1845.778931 
	C464.779510,1844.987671 463.833008,1844.515381 462.590515,1844.021240 
	C461.848938,1843.704224 461.403412,1843.409302 460.891510,1842.769165 
	C459.608582,1841.147583 458.563538,1839.625488 457.146576,1838.635986 
	C449.820770,1833.519409 442.485992,1828.405640 434.976410,1823.566895 
	C431.138672,1821.094116 426.928497,1819.199219 422.521851,1817.014160 
	C417.757385,1813.361694 413.357635,1809.738281 408.854675,1805.778564 
	C407.129822,1804.642456 405.508209,1803.842773 403.598938,1802.931641 
	C402.526794,1802.251587 401.742279,1801.682983 400.891846,1800.768066 
	C398.185974,1798.634888 395.546112,1796.847900 392.940979,1795.043945 
	C392.975739,1795.026855 392.941650,1795.096436 392.916626,1794.729492 
	C391.223206,1793.255981 389.554871,1792.149536 387.559906,1791.020020 
	C386.141479,1790.036011 385.049652,1789.075317 383.930176,1787.747192 
	C382.237000,1786.273438 380.571503,1785.166992 378.940735,1784.043823 
	C378.975464,1784.026978 378.941681,1784.096436 378.916962,1783.729980 
	C377.230164,1782.262695 375.568085,1781.161743 373.940735,1780.043945 
	C373.975433,1780.027222 373.941650,1780.096680 373.920654,1779.739014 
	C370.561829,1776.935303 367.223969,1774.489258 363.656372,1771.977661 
	C363.132172,1771.727661 362.975891,1771.461914 362.888916,1770.764526 
	C361.182098,1769.296387 359.544037,1768.178589 357.941132,1767.042236 
	C357.976288,1767.023438 357.939301,1767.094116 357.926086,1766.720459 
	C357.252380,1762.350952 354.678864,1760.889648 350.576050,1760.884033 
	C349.445496,1759.806396 348.710022,1758.791382 347.791412,1757.984985 
	C342.871979,1753.666260 337.906982,1749.399414 332.940948,1744.741211 
	C332.315216,1740.297119 329.367340,1739.317749 325.588745,1738.921143 
	C323.846680,1737.237671 322.402161,1735.676270 320.899292,1733.759033 
	C319.007385,1728.848755 315.694702,1726.055542 310.580933,1724.913696 
	C291.954926,1705.793579 273.407867,1687.014282 255.400269,1667.731201 
	C244.872238,1656.457642 234.779861,1644.714355 225.246567,1632.588623 
	C208.913040,1611.813599 192.510590,1591.037231 177.332916,1569.421753 
	C153.222000,1535.083862 131.546295,1499.140747 112.527100,1461.738159 
	C100.012283,1437.126587 87.848465,1412.211304 77.610153,1386.599365 
	C64.936241,1354.894775 53.637875,1322.578125 43.227947,1290.051270 
	C35.584652,1266.169067 30.086430,1241.582642 24.101254,1217.194824 
	C20.890604,1204.112305 18.375990,1190.837524 16.083744,1177.556885 
	C13.698105,1163.735229 11.884159,1149.812500 9.958514,1135.914795 
	C8.209623,1123.292603 6.380739,1110.671753 5.084174,1097.999512 
	C4.011589,1087.516357 3.706780,1076.955933 2.916327,1066.440674 
	C2.851932,1065.583984 1.665207,1064.811523 0.999995,1064.000000 
	C1.000000,1022.645752 1.000000,981.291565 1.435400,939.447510 
	C2.236848,938.504395 2.889682,938.073181 2.926564,937.594543 
	C3.660070,928.073486 4.230402,918.539246 5.023439,909.023560 
	C5.922941,898.230591 6.575253,887.390991 8.110407,876.682861 
	C10.745645,858.301331 13.654213,839.944824 17.054867,821.690918 
	C20.832161,801.415100 24.662668,781.111877 29.585480,761.094910 
	C38.604389,724.422607 49.661251,688.353455 62.846081,652.910950 
	C74.399529,621.853821 87.354691,591.428772 101.865410,561.679749 
	C110.206314,544.579712 119.132568,527.733459 128.520996,511.184662 
	C138.697800,493.246307 149.348145,475.550262 160.449600,458.168518 
	C181.623306,425.016541 204.739380,393.241669 230.261551,363.276245 
	C243.374390,347.880493 256.107208,332.079132 270.200409,317.619598 
	C290.941376,296.339508 312.537262,275.874451 334.181458,255.500381 
	C345.412994,244.927963 357.197021,234.872772 369.322296,225.335068 
	C390.096191,208.994431 410.871918,192.586273 432.482422,177.395096 
	C466.950073,153.166000 503.074036,131.454315 540.602600,112.311584 
	C565.053101,99.839821 589.858215,87.815880 615.325195,77.646927 
	C647.040527,64.983002 679.350464,53.653267 711.880066,43.235069 
	C735.764099,35.585781 760.355408,30.089119 784.746826,24.102535 
	C797.831116,20.891130 811.107849,18.376129 824.390503,16.084200 
	C838.214050,13.698929 852.139099,11.887125 866.038696,9.961523 
	C878.663391,8.212551 891.286316,6.381487 903.960938,5.084261 
	C914.445068,4.011221 925.006836,3.707386 935.523193,2.916512 
	C936.391968,2.851177 937.176392,1.665263 938.000000,1.000003 
M744.014099,1118.767578 
	C745.620544,1121.178467 747.226990,1123.589355 748.982788,1126.432251 
	C748.982788,1126.432251 749.042603,1126.885620 749.029175,1127.706787 
	C749.506836,1129.771240 749.538147,1132.089233 750.541138,1133.855347 
	C754.373169,1140.602661 758.308899,1147.312378 762.622864,1153.756958 
	C765.305237,1157.764160 768.737366,1161.269653 772.148193,1165.655884 
	C773.369995,1167.253052 774.534851,1168.897949 775.824158,1170.438477 
	C779.871765,1175.275269 783.966248,1180.072876 788.075745,1185.630859 
	C788.905396,1188.869263 790.012268,1191.843140 794.732422,1192.223022 
	C796.894775,1195.030396 798.754395,1198.153320 801.282776,1200.579224 
	C806.495178,1205.580322 812.027344,1210.252441 817.504089,1214.971558 
	C819.921021,1217.054077 822.523804,1218.920898 825.191895,1221.579712 
	C826.492554,1222.366089 827.793152,1223.152588 829.024109,1223.973022 
	C829.024109,1223.973022 829.058289,1223.903442 829.101562,1224.616699 
	C829.830444,1225.636841 830.353943,1226.949707 831.322083,1227.629028 
	C837.090820,1231.676758 842.898193,1235.678833 848.837097,1239.469604 
	C850.699524,1240.658569 853.008850,1241.147583 855.848083,1242.015869 
	C858.518188,1243.499634 861.204346,1244.955200 863.855042,1246.472900 
	C870.440125,1250.243286 876.830322,1254.410278 883.640503,1257.713501 
	C889.169434,1260.395386 895.194580,1262.054199 901.193115,1264.823730 
	C906.306580,1270.060303 913.270752,1270.266602 919.803284,1271.615601 
	C920.150635,1271.687378 920.625488,1271.142456 921.839294,1270.985840 
	C929.531067,1273.141479 937.174622,1275.497925 944.937195,1277.358276 
	C948.253418,1278.153076 951.842346,1277.725952 955.264282,1278.179565 
	C964.144348,1279.356689 972.977905,1281.572632 981.871155,1281.805908 
	C996.485474,1282.189331 1011.174255,1281.902466 1025.752197,1280.824097 
	C1037.756104,1279.936157 1049.823120,1278.268066 1061.549561,1275.581787 
	C1090.305908,1268.994141 1117.672974,1258.617065 1143.133057,1243.450562 
	C1161.737061,1232.368530 1179.135498,1219.679321 1194.692261,1204.644165 
	C1202.635010,1196.967773 1209.910156,1188.573730 1217.190918,1180.245239 
	C1230.651489,1164.847534 1241.638916,1147.749390 1251.053589,1129.627197 
	C1260.283203,1111.861206 1267.273804,1093.219482 1272.538452,1073.925171 
	C1277.973755,1054.004883 1281.335205,1033.675171 1281.804688,1013.080872 
	C1282.142578,998.249512 1280.945801,983.357910 1279.929565,968.527710 
	C1278.802246,952.076050 1274.836792,936.155762 1270.158569,920.359009 
	C1263.811523,898.926819 1254.949585,878.645996 1243.750610,859.345337 
	C1233.049194,840.901978 1220.417603,823.842834 1205.736938,808.428406 
	C1197.777710,800.071472 1188.973022,792.493286 1180.293457,784.854919 
	C1164.434814,770.898254 1146.898071,759.218323 1127.885498,750.195007 
	C1113.149170,743.201294 1097.831909,737.150452 1082.279907,732.242432 
	C1068.881104,728.013794 1054.835205,725.733643 1040.978638,723.101196 
	C1034.078247,721.790283 1026.974731,721.319885 1019.939026,721.001343 
	C1008.023010,720.461914 996.059570,719.706726 984.168762,720.232910 
	C972.760376,720.737732 961.419006,722.755066 949.393127,723.653015 
	C946.823181,723.645752 944.136780,723.146118 941.704773,723.721741 
	C933.753235,725.603638 925.894470,727.877136 917.264038,730.150085 
	C908.576721,733.268433 899.838074,736.255127 891.240356,739.603577 
	C889.246765,740.380005 887.733765,742.390320 885.215942,743.976196 
	C882.935425,744.755737 880.549683,745.321594 878.405945,746.378540 
	C876.502625,747.316833 874.867798,748.799927 872.293274,750.029114 
	C869.793335,750.743591 866.996216,750.964539 864.845703,752.259399 
	C856.238464,757.441711 847.799011,762.907227 839.391846,768.411987 
	C838.311096,769.119690 837.783386,770.671997 836.344360,772.147888 
	C828.408386,778.414062 820.175293,784.346008 812.631165,791.052917 
	C806.675354,796.347900 801.621582,802.649170 796.054382,808.394104 
	C793.905945,810.611206 791.210999,812.320007 789.184143,814.628418 
	C786.292053,817.922119 783.785645,821.554443 780.420532,825.191895 
	C779.633972,826.492432 778.847473,827.792908 778.027344,829.024048 
	C778.027344,829.024048 778.096558,829.058044 777.382751,829.099670 
	C775.898560,830.296082 774.042114,831.233521 772.997375,832.735535 
	C769.250000,838.122925 765.683716,843.644043 762.255737,849.241150 
	C761.182739,850.993225 760.762207,853.144897 759.983948,855.849609 
	C758.084900,858.691101 755.954590,861.407349 754.333923,864.399597 
	C750.752869,871.011292 747.151489,877.638062 744.082458,884.493347 
	C741.388794,890.510193 739.409424,896.846741 736.411926,903.196350 
	C734.401794,908.374023 732.371277,913.544189 730.453491,918.755859 
	C730.373901,918.972168 731.349182,919.576660 731.727051,920.744934 
	C730.463318,925.544739 729.052490,930.311462 727.965271,935.150879 
	C725.372986,946.690552 721.377563,957.930908 721.792786,970.087769 
	C721.985535,975.733337 720.274292,981.418884 720.084167,987.108276 
	C719.773193,996.409973 720.041870,1005.729919 719.969360,1015.041443 
	C719.952087,1017.263000 719.143555,1019.532410 719.411377,1021.691467 
	C720.047546,1026.820068 721.093933,1031.898804 722.004211,1036.992310 
	C723.778931,1046.923340 725.389709,1056.888794 727.430420,1066.765259 
	C728.629456,1072.568359 730.525269,1078.227783 731.666931,1084.553467 
	C732.777954,1088.702271 733.888977,1092.851196 735.054138,1097.758179 
	C738.036072,1104.505493 741.018066,1111.252686 744.014099,1118.767578 
M737.778076,1425.359619 
	C734.996460,1421.171265 731.928223,1421.706299 728.711182,1424.815186 
	C727.872864,1425.625488 727.049805,1426.451660 726.225342,1427.276001 
	C666.978699,1486.521606 607.732117,1545.767212 548.489929,1605.017212 
	C547.313110,1606.194092 545.785095,1607.246216 545.158508,1608.678955 
	C544.601685,1609.952026 544.462219,1612.546875 545.188416,1613.053467 
	C549.322632,1615.937378 553.771484,1618.370483 558.742493,1621.233276 
	C562.494934,1623.877808 566.247314,1626.522339 570.174805,1629.813354 
	C577.154724,1634.528076 584.134583,1639.242920 591.870422,1643.995605 
	C595.887939,1646.222168 599.915039,1648.431641 603.919739,1650.680786 
	C607.082703,1652.457397 610.296326,1654.160889 613.348328,1656.114258 
	C618.332397,1659.304321 623.025574,1662.987061 628.168396,1665.880981 
	C634.071167,1669.202759 640.343445,1671.864624 646.420471,1674.883057 
	C647.387451,1675.363037 648.172729,1676.208984 649.237427,1677.547363 
	C656.529419,1681.017212 663.821350,1684.487183 671.865723,1687.995728 
	C674.288757,1689.211304 676.722351,1690.406372 679.130859,1691.650146 
	C680.554932,1692.385742 681.874756,1693.360840 683.353149,1693.946167 
	C688.200378,1695.865601 693.175049,1697.479736 697.955261,1699.547607 
	C702.349487,1701.448486 706.418579,1704.139160 710.872070,1705.856567 
	C721.170349,1709.827881 731.614685,1713.420410 742.194153,1717.823242 
	C745.760864,1721.440918 749.810669,1723.530273 755.820496,1721.985718 
	C758.880188,1723.046021 761.939941,1724.106323 765.256531,1725.789429 
	C768.221436,1728.046875 770.979492,1731.169678 776.039551,1728.070068 
	C781.066467,1730.020142 786.003845,1732.263428 791.146423,1733.835327 
	C795.984924,1735.314087 801.039978,1736.084595 806.267090,1737.797607 
	C812.035767,1741.407715 818.091125,1743.700684 825.836548,1741.984253 
	C834.580811,1744.182251 843.300720,1746.485840 852.083496,1748.517334 
	C854.938660,1749.177856 857.998718,1748.908569 860.895081,1749.443604 
	C868.517517,1750.851074 876.061218,1752.723389 883.712769,1753.923096 
	C890.481384,1754.984375 897.365356,1755.285767 904.176208,1756.107422 
	C914.217163,1757.318604 924.209473,1759.024658 934.276245,1759.904297 
	C943.814636,1760.737549 953.422302,1760.777710 963.285156,1761.814087 
	C966.182983,1764.432739 969.092651,1765.467163 972.963867,1761.983521 
	C991.962708,1761.949829 1010.961609,1761.916138 1030.260010,1762.550781 
	C1033.652710,1765.115845 1036.470215,1764.048340 1039.891357,1761.023560 
	C1043.606812,1761.029541 1047.356567,1761.365356 1051.031616,1760.983276 
	C1065.833496,1759.444092 1080.632080,1757.839355 1095.393677,1755.959229 
	C1109.634644,1754.145386 1124.003906,1752.776855 1138.004761,1749.763672 
	C1162.715210,1744.445312 1187.274414,1738.354980 1211.740112,1731.985962 
	C1244.417236,1723.479370 1276.018799,1711.735229 1306.786743,1697.913086 
	C1325.162231,1689.658081 1343.368774,1680.894165 1361.039673,1671.239258 
	C1380.405396,1660.658203 1399.137939,1648.905151 1418.005371,1637.430786 
	C1427.131958,1631.880249 1435.935669,1625.798584 1445.612061,1619.924805 
	C1446.727295,1618.911621 1447.842529,1617.898438 1449.207153,1616.284302 
	C1450.433105,1615.508667 1451.659058,1614.733032 1453.625244,1613.924316 
	C1458.957642,1611.824951 1459.110718,1610.620850 1454.473511,1605.982666 
	C1394.564575,1546.061523 1334.650146,1486.145752 1274.714722,1426.251099 
	C1273.436401,1424.973633 1272.047241,1423.588867 1270.433716,1422.922485 
	C1268.614258,1422.171143 1266.172729,1421.570435 1265.879761,1425.614868 
	C1264.869385,1426.228027 1263.859009,1426.841187 1262.006226,1427.314941 
	C1257.521973,1427.724243 1253.563599,1428.941040 1251.243896,1433.989746 
	C1247.274048,1435.747070 1243.147827,1437.222656 1239.367432,1439.321167 
	C1231.893555,1443.470215 1224.764038,1448.256348 1217.199219,1452.219971 
	C1211.374512,1455.271973 1205.130859,1457.541016 1199.016968,1460.018677 
	C1195.316528,1461.518311 1191.435425,1462.581055 1187.764282,1464.142456 
	C1181.139038,1466.960571 1174.836060,1470.833374 1167.972900,1472.705200 
	C1162.044067,1474.322266 1156.234619,1475.896851 1150.748657,1478.662231 
	C1150.055664,1479.011475 1149.112305,1478.824585 1148.314087,1479.011230 
	C1144.148560,1479.984985 1139.992554,1480.999023 1134.986084,1482.000122 
	C1127.858154,1483.438965 1120.709229,1484.784424 1113.615967,1486.377441 
	C1111.658691,1486.816895 1109.867065,1487.994385 1107.213989,1488.978516 
	C1105.769043,1489.640015 1104.383545,1490.649292 1102.869751,1490.907959 
	C1090.524048,1493.017578 1078.160034,1495.023804 1065.788818,1496.980835 
	C1060.890137,1497.755859 1055.976685,1498.541138 1051.039185,1498.946289 
	C1041.040283,1499.766479 1031.028809,1500.665283 1021.007141,1500.917236 
	C1007.693909,1501.251831 994.363892,1501.127563 981.045715,1500.913818 
	C977.528137,1500.857422 974.044556,1499.356323 970.515564,1499.203125 
	C963.021729,1498.877808 955.449890,1499.571777 948.016724,1498.808594 
	C937.021057,1497.679932 926.085693,1495.833984 915.186401,1493.938843 
	C907.073730,1492.528198 899.058777,1490.555664 890.726318,1488.196045 
	C884.043884,1486.167969 877.376465,1484.086914 870.658081,1482.185791 
	C869.906250,1481.973145 868.865662,1482.781006 867.168030,1482.993774 
	C853.138184,1478.524658 838.947205,1474.497314 825.126160,1469.455566 
	C812.601562,1464.886963 800.254028,1459.682495 788.241821,1453.899780 
	C774.903137,1447.478516 762.032532,1440.084961 748.821228,1432.417847 
	C745.214111,1430.278564 741.607056,1428.139282 737.778076,1425.359619 
M376.417969,564.191406 
	C375.641022,564.767212 374.642639,565.189697 374.121490,565.942505 
	C369.040222,573.283264 363.948547,580.620544 359.082336,588.103577 
	C357.964783,589.822205 357.700195,592.095398 356.999176,594.705383 
	C356.704224,595.150940 356.409302,595.596497 355.428558,596.171997 
	C353.120300,597.449036 350.166016,598.361450 352.009644,602.644775 
	C351.711304,603.110596 351.412964,603.576355 350.505402,604.149475 
	C350.042023,605.113525 349.578613,606.077576 349.004517,607.766602 
	C344.247742,616.071106 339.141113,624.197510 334.804504,632.715942 
	C324.695007,652.573975 314.236481,672.303894 305.265869,692.678589 
	C296.003296,713.716492 287.330750,735.129700 280.230438,756.973694 
	C272.076813,782.058289 265.288666,807.641174 259.119537,833.299072 
	C254.146896,853.980713 250.554611,875.027344 247.149933,896.041626 
	C244.743530,910.894409 243.406357,925.940369 242.091949,940.943909 
	C241.012466,953.265869 240.158646,965.650635 240.113693,978.010803 
	C240.036377,999.270935 240.506622,1020.537964 241.069321,1041.793579 
	C241.339386,1051.995850 241.979645,1062.219238 243.104904,1072.360596 
	C244.761688,1087.292480 246.737106,1102.201172 249.066589,1117.042725 
	C251.513382,1132.631958 253.934647,1148.268921 257.457947,1163.634888 
	C262.128082,1184.002441 267.142273,1204.347168 273.287018,1224.308228 
	C284.218750,1259.819824 297.351990,1294.575928 313.635101,1328.015015 
	C322.249908,1345.706177 330.991547,1363.447754 341.259094,1380.196045 
	C356.794556,1405.537354 373.711761,1430.031616 390.165924,1455.529175 
	C391.432251,1455.904175 393.122681,1456.982056 393.885040,1456.521851 
	C396.127319,1455.168579 398.128571,1453.332397 400.000763,1451.461670 
	C454.556488,1396.952148 509.084930,1342.415283 563.617310,1287.882446 
	C567.739624,1283.760010 572.007019,1279.767212 575.890991,1275.431152 
	C577.093567,1274.088745 577.249512,1271.808838 577.976562,1269.316406 
	C577.706665,1268.539551 577.436768,1267.762817 577.483704,1266.416748 
	C574.254456,1260.194702 571.085388,1253.939941 567.725830,1247.788940 
	C567.263367,1246.942261 565.855774,1246.611572 564.264160,1245.723022 
	C563.275024,1244.051880 562.151794,1242.444824 561.317627,1240.699585 
	C553.830322,1225.034424 546.072327,1209.487793 539.021912,1193.627197 
	C529.664795,1172.577271 522.756714,1150.648438 516.954834,1128.360718 
	C511.539917,1107.559448 507.012238,1086.601318 504.955933,1065.168945 
	C503.624969,1051.296875 501.295929,1037.427856 501.224365,1023.548157 
	C501.096283,998.707581 502.234711,973.856689 503.073151,949.017822 
	C503.276825,942.983826 504.075714,936.928040 505.117981,930.972778 
	C507.582581,916.890198 509.814484,902.731384 513.150208,888.846008 
	C517.005615,872.797791 521.327820,856.802307 526.589905,841.168579 
	C531.593018,826.304382 537.456116,811.651306 544.059998,797.424805 
	C551.696960,780.972839 560.556641,765.088562 569.606079,748.907959 
	C574.598572,745.161560 577.605652,740.315735 577.981934,733.323059 
	C577.950317,732.896606 577.918701,732.470093 578.230896,731.569885 
	C577.133911,729.859985 576.304138,727.883362 574.901489,726.478699 
	C515.505432,666.993103 456.058533,607.558289 396.615692,548.119446 
	C395.674408,547.178223 394.854218,545.874023 393.711182,545.439209 
	C392.358002,544.924377 389.795929,544.531799 389.341095,545.186401 
	C385.054810,551.354736 381.106689,557.758118 377.028351,564.024292 
	C377.028351,564.024292 377.097351,564.057617 376.417969,564.191406 
M676.345459,312.146973 
	C642.076965,329.119843 608.558960,347.411560 576.954224,369.030090 
	C566.477539,376.196411 556.164673,383.602203 546.060120,390.699585 
	C608.692383,453.332245 670.883484,515.523743 733.165222,577.805847 
	C815.101440,527.133667 904.183350,500.779907 1001.202759,500.843597 
	C1098.173462,500.907257 1187.228394,527.392883 1269.006836,577.979675 
	C1331.517090,515.474915 1393.600098,453.397522 1455.720459,391.282654 
	C1454.771118,390.348358 1453.838135,389.105652 1452.621582,388.281738 
	C1436.474243,377.344727 1420.419556,366.262909 1404.080811,355.617859 
	C1374.177368,336.135040 1342.508057,319.942047 1309.942383,305.385529 
	C1281.786987,292.800354 1253.061401,281.722382 1223.472046,273.157623 
	C1200.135010,266.402618 1176.471924,260.714600 1152.809448,255.167557 
	C1139.838745,252.126907 1126.615601,250.044250 1113.421143,248.111359 
	C1101.278687,246.332596 1089.041138,245.113205 1076.811035,244.042053 
	C1059.280762,242.506699 1041.736084,240.570435 1024.166626,240.170959 
	C994.861572,239.504684 965.527466,239.611038 936.313477,242.950424 
	C927.660278,243.939560 918.893372,243.991058 910.265198,245.128983 
	C897.831909,246.768768 885.435364,248.778336 873.100342,251.049393 
	C856.967590,254.019669 840.877747,257.246857 824.831909,260.657349 
	C814.533325,262.846283 804.347168,265.564514 793.415955,267.750397 
	C792.119629,267.636658 790.717957,267.144592 789.544189,267.471313 
	C782.525330,269.424744 775.455444,271.274323 768.595825,273.704132 
	C752.183350,279.517639 735.799133,285.428802 719.554932,291.693207 
	C706.558655,296.705109 693.752136,302.218079 680.954712,307.725403 
	C679.345093,308.418030 678.304077,310.431732 676.345459,312.146973 
M1423.307251,1269.235596 
	C1424.383911,1271.502686 1424.942139,1274.286621 1426.612183,1275.962036 
	C1485.668335,1335.196899 1544.827759,1394.328613 1603.980103,1453.467407 
	C1605.037842,1454.524902 1606.073242,1455.666504 1607.313599,1456.467529 
	C1610.413452,1458.469116 1612.717773,1458.331177 1613.229492,1453.255005 
	C1613.620239,1452.549683 1613.929810,1451.782227 1614.413452,1451.147705 
	C1634.170288,1425.231323 1651.663818,1397.812378 1667.160278,1369.201050 
	C1677.764160,1349.623047 1687.983765,1329.730347 1696.702759,1309.265869 
	C1707.230591,1284.556030 1716.652954,1259.319702 1725.356567,1233.901367 
	C1737.785522,1197.602539 1746.537354,1160.314087 1752.026001,1122.304199 
	C1754.405518,1105.826660 1757.124268,1089.380615 1758.862549,1072.833374 
	C1760.479248,1057.444214 1761.597900,1041.949219 1761.846680,1026.483398 
	C1762.153564,1007.400085 1761.496948,988.294006 1760.939209,969.207031 
	C1760.621582,958.339172 1759.952026,947.463501 1758.936401,936.638672 
	C1757.545044,921.811462 1756.166870,906.953125 1753.891357,892.246033 
	C1750.658325,871.350830 1747.460571,850.386169 1742.718994,829.803406 
	C1735.552856,798.695679 1726.221924,768.180542 1715.184692,738.155518 
	C1701.533936,701.020752 1685.700928,664.901489 1665.779541,630.762207 
	C1651.214966,605.803162 1635.171997,581.703735 1619.632446,557.320190 
	C1617.063354,553.288818 1613.695557,549.766418 1610.845703,546.195251 
	C1548.380249,608.657654 1486.290649,670.744202 1424.029785,733.001953 
	C1424.276978,733.497131 1424.571655,734.249573 1424.998047,734.917908 
	C1439.377075,757.458191 1451.392212,781.235413 1461.946411,805.764893 
	C1472.987061,831.424866 1481.816528,857.862793 1487.860718,885.113525 
	C1491.625488,902.087341 1494.418457,919.307983 1496.896973,936.525940 
	C1498.857544,950.145325 1500.684692,963.922668 1500.774292,977.641602 
	C1500.927002,1000.990295 1499.880371,1024.357178 1498.900024,1047.697998 
	C1498.488281,1057.502441 1497.628662,1067.386963 1495.797974,1077.011719 
	C1492.312744,1095.336060 1488.395752,1113.601929 1483.908691,1131.706421 
	C1477.108154,1159.146362 1467.692993,1185.782593 1455.195557,1211.122314 
	C1445.496826,1230.787598 1434.341309,1249.734497 1423.307251,1269.235596 
M1263.499878,1425.473511 
	C1263.499878,1425.473511 1263.514282,1425.512939 1263.499878,1425.473511 
z"/>
<path fill="#000000" opacity="1.000000" stroke="none" 
	d="
M1593.113892,1807.042358 
	C1593.693481,1806.578003 1594.273071,1806.113647 1595.285156,1805.328003 
	C1597.176514,1803.691162 1598.635254,1802.375488 1600.093994,1801.059814 
	C1600.094116,1801.059937 1600.025146,1801.028320 1600.392578,1801.015625 
	C1602.878052,1799.349365 1604.996094,1797.695801 1607.114014,1796.042358 
	C1608.667236,1795.273071 1610.220459,1794.503784 1612.220093,1793.287476 
	C1614.475830,1791.246948 1616.285034,1789.653564 1618.094238,1788.060181 
	C1618.094238,1788.060181 1618.024902,1788.027466 1618.379395,1788.015869 
	C1620.187256,1786.689453 1621.640747,1785.374756 1623.094238,1784.060059 
	C1623.094360,1784.060181 1623.025269,1784.028320 1623.373535,1784.016724 
	C1624.846069,1783.023438 1625.970215,1782.041870 1627.094360,1781.060303 
	C1627.094360,1781.060181 1627.023926,1781.023193 1627.359863,1780.919434 
	C1631.168701,1777.891235 1634.641479,1774.966797 1638.114258,1772.042480 
	C1643.842529,1767.427734 1649.922607,1763.183594 1655.239258,1758.135132 
	C1680.506104,1734.143555 1706.017212,1710.380737 1730.527832,1685.631958 
	C1745.080688,1670.937500 1757.984131,1654.604126 1771.537720,1638.928833 
	C1776.140991,1633.604980 1780.605835,1628.147583 1784.886597,1622.561768 
	C1794.190918,1610.421265 1803.393677,1598.201660 1812.510376,1585.919678 
	C1815.150391,1582.363037 1817.356445,1578.484375 1820.260010,1574.377686 
	C1828.210449,1563.015503 1835.662476,1552.028809 1843.114380,1541.042114 
	C1846.743286,1535.284180 1850.372314,1529.526245 1854.374268,1523.265137 
	C1858.203003,1516.855347 1861.658813,1510.948853 1865.114502,1505.042236 
	C1866.742798,1502.287842 1868.371094,1499.533447 1870.369385,1496.274170 
	C1871.531128,1494.193604 1872.322876,1492.617920 1873.114502,1491.042236 
	C1873.412842,1490.576416 1873.711304,1490.110596 1874.379028,1489.202759 
	C1875.870361,1486.521240 1876.992554,1484.281738 1878.114502,1482.042236 
	C1881.406006,1475.976685 1884.697510,1469.911133 1888.339600,1463.330566 
	C1893.404419,1453.210327 1898.118896,1443.604980 1902.833252,1433.999634 
	C1911.523926,1414.778809 1920.988037,1395.862671 1928.708252,1376.259644 
	C1938.256958,1352.013916 1946.815063,1327.348755 1954.972046,1302.591553 
	C1965.885864,1269.466675 1974.665405,1235.739380 1981.040771,1201.414429 
	C1983.919678,1185.914307 1987.248047,1170.492432 1989.852905,1154.948120 
	C1991.688721,1143.992554 1992.721436,1132.898560 1993.983643,1121.851807 
	C1995.712280,1106.721436 1997.363403,1091.581787 1998.936523,1076.434692 
	C1999.227783,1073.631592 1998.853271,1070.763794 1999.055420,1067.945312 
	C1999.166016,1066.403564 1999.840210,1064.902222 2000.630127,1063.691406 
	C2001.000000,1376.260742 2001.000000,1688.521362 2001.000000,2001.000000 
	C1686.645752,2001.000000 1372.291504,2001.000000 1057.468750,2001.000000 
	C1058.519409,2000.044189 1059.957153,1998.462280 1061.573486,1998.251587 
	C1066.093506,1997.662231 1070.685425,1997.577637 1075.253418,1997.432251 
	C1076.633789,1997.388306 1078.063232,1998.099243 1079.411011,1997.945557 
	C1085.764282,1997.220337 1092.082642,1996.174316 1098.442261,1995.524170 
	C1102.588989,1995.100098 1106.827271,1995.482544 1110.951538,1994.944092 
	C1127.609009,1992.769043 1144.259766,1990.520142 1160.870361,1988.015381 
	C1172.600342,1986.246582 1184.267944,1984.057495 1195.951294,1981.988281 
	C1203.119873,1980.718506 1210.290283,1979.437744 1217.413574,1977.941650 
	C1222.401855,1976.893677 1227.312012,1975.473267 1233.039551,1974.097900 
	C1241.229126,1972.021973 1248.636353,1970.067261 1256.043457,1968.112671 
	C1257.464478,1967.833496 1258.933228,1967.699097 1260.298218,1967.249878 
	C1265.908691,1965.402832 1271.384521,1963.392944 1277.390503,1962.652222 
	C1281.543091,1962.140137 1285.369995,1959.346069 1289.475342,1957.967285 
	C1292.307739,1957.015869 1295.367310,1956.740479 1299.055908,1956.069092 
	C1303.177856,1954.970215 1306.619873,1954.109375 1309.950073,1952.932007 
	C1319.006470,1949.730347 1328.015503,1946.394897 1337.043457,1943.112549 
	C1338.713989,1942.342529 1340.404175,1941.611572 1342.047729,1940.787720 
	C1343.029663,1940.295410 1343.870605,1939.401611 1344.892334,1939.129272 
	C1349.187012,1937.985229 1353.573486,1937.166016 1357.827637,1935.896851 
	C1359.748535,1935.323608 1361.438110,1933.974976 1364.001099,1932.976807 
	C1370.058105,1930.979980 1375.421997,1929.159424 1380.611084,1926.932007 
	C1384.560425,1925.236816 1388.287964,1923.024658 1392.114136,1921.042480 
	C1397.043091,1918.707520 1401.955811,1916.337036 1406.913452,1914.064575 
	C1408.062866,1913.537720 1409.353394,1913.287231 1410.602295,1913.017700 
	C1411.709961,1912.778687 1412.970581,1912.949097 1413.955933,1912.491455 
	C1419.781860,1909.785767 1425.546997,1906.949707 1432.033447,1904.061523 
	C1440.976685,1899.934204 1449.254272,1895.972656 1457.440918,1891.831177 
	C1460.120483,1890.475586 1462.563354,1888.651855 1465.114380,1887.042236 
	C1468.175415,1885.125000 1471.239258,1883.212158 1474.295410,1881.287109 
	C1474.979126,1880.856567 1475.576050,1880.199463 1476.314575,1879.958740 
	C1483.379761,1877.655762 1489.820679,1874.384644 1495.469238,1869.382935 
	C1497.485718,1867.597412 1500.621826,1867.076172 1503.974121,1865.872070 
	C1511.503296,1861.526978 1518.305298,1857.287720 1525.465576,1853.020508 
	C1534.290649,1847.649170 1542.862305,1842.463013 1551.192505,1836.914185 
	C1558.310181,1832.172852 1565.150879,1827.015625 1572.114014,1822.042236 
	C1573.017456,1821.255005 1573.920898,1820.467896 1575.260498,1819.344238 
	C1576.502441,1818.352661 1577.308350,1817.697388 1578.114258,1817.042236 
	C1579.008057,1816.588135 1579.901855,1816.134155 1581.289429,1815.347412 
	C1585.560059,1812.357422 1589.337036,1809.699829 1593.113892,1807.042358 
z"/>
<path fill="#000000" opacity="1.000000" stroke="none" 
	d="
M700.000366,1954.833374 
	C706.676819,1956.582886 713.391968,1958.200195 720.013428,1960.137695 
	C723.312683,1961.103027 726.370605,1962.883423 729.662048,1963.887451 
	C734.773315,1965.446411 739.990662,1966.657227 745.754517,1968.397339 
	C753.897461,1970.463745 761.448914,1972.148438 769.000366,1973.833130 
	C773.933044,1975.186523 778.828857,1976.698853 783.807556,1977.854126 
	C790.381592,1979.379272 797.017395,1980.640137 803.635742,1981.969238 
	C804.432007,1982.129272 805.284912,1982.006958 806.694214,1982.374023 
	C808.184753,1982.765991 809.092529,1982.799561 810.000366,1982.833008 
	C810.435547,1982.892822 810.870667,1982.952637 811.843506,1983.406006 
	C817.603516,1984.707886 822.804016,1985.784546 828.055847,1986.466675 
	C831.704407,1986.940552 835.423401,1986.871704 839.110962,1987.045532 
	C844.919006,1988.363525 850.672058,1990.052124 856.546326,1990.923462 
	C869.298767,1992.814941 882.096619,1994.434570 894.907959,1995.881958 
	C903.406738,1996.842163 911.954102,1997.417236 920.492432,1997.968140 
	C928.063354,1998.456421 935.654053,1998.634155 943.229309,1999.065918 
	C944.068970,1999.113770 944.864807,1999.929932 945.340454,2000.694946 
	C630.406494,2001.000000 315.812988,2001.000000 1.000000,2001.000000 
	C1.000000,1688.979126 1.000000,1376.958130 0.999995,1064.468628 
	C1.665207,1064.811523 2.851932,1065.583984 2.916327,1066.440674 
	C3.706780,1076.955933 4.011589,1087.516357 5.084174,1097.999512 
	C6.380739,1110.671753 8.209623,1123.292603 9.958514,1135.914795 
	C11.884159,1149.812500 13.698105,1163.735229 16.083744,1177.556885 
	C18.375990,1190.837524 20.890604,1204.112305 24.101254,1217.194824 
	C30.086430,1241.582642 35.584652,1266.169067 43.227947,1290.051270 
	C53.637875,1322.578125 64.936241,1354.894775 77.610153,1386.599365 
	C87.848465,1412.211304 100.012283,1437.126587 112.527100,1461.738159 
	C131.546295,1499.140747 153.222000,1535.083862 177.332916,1569.421753 
	C192.510590,1591.037231 208.913040,1611.813599 225.246567,1632.588623 
	C234.779861,1644.714355 244.872238,1656.457642 255.400269,1667.731201 
	C273.407867,1687.014282 291.954926,1705.793579 310.717072,1725.222900 
	C314.425049,1728.479248 317.691376,1731.296997 320.957703,1734.114746 
	C322.402161,1735.676270 323.846680,1737.237671 325.725128,1739.230469 
	C328.425293,1741.479614 330.691498,1743.297119 332.957764,1745.114624 
	C337.906982,1749.399414 342.871979,1753.666260 347.791412,1757.984985 
	C348.710022,1758.791382 349.445496,1759.806396 350.712555,1761.193604 
	C353.419525,1763.472900 355.679443,1765.283447 357.939331,1767.093994 
	C357.939301,1767.094116 357.976288,1767.023438 358.074707,1767.350830 
	C359.767944,1768.823730 361.362793,1769.969360 362.957672,1771.114990 
	C362.975891,1771.461914 363.132172,1771.727661 363.795959,1772.290771 
	C367.424103,1775.145142 370.682892,1777.620972 373.941650,1780.096680 
	C373.941650,1780.096680 373.975433,1780.027222 374.073914,1780.352051 
	C375.762177,1781.816772 377.351929,1782.956543 378.941711,1784.096436 
	C378.941681,1784.096436 378.975464,1784.026978 379.074341,1784.352417 
	C380.768127,1785.823364 382.363007,1786.968872 383.957886,1788.114502 
	C385.049652,1789.075317 386.141479,1790.036011 387.695618,1791.328857 
	C389.752472,1792.806030 391.347046,1793.951294 392.941650,1795.096436 
	C392.941650,1795.096436 392.975739,1795.026855 393.079346,1795.357910 
	C395.774567,1797.497314 398.366180,1799.305908 400.957794,1801.114380 
	C401.742279,1801.682983 402.526794,1802.251587 403.743958,1803.250977 
	C405.770386,1804.492798 407.364136,1805.303711 408.957886,1806.114746 
	C413.357635,1809.738281 417.757385,1813.361694 422.664062,1817.330200 
	C425.770996,1819.607788 428.289459,1821.663330 430.985565,1823.450806 
	C440.944580,1830.053223 450.962280,1836.567017 460.957886,1843.114258 
	C461.403412,1843.409302 461.848938,1843.704224 462.721375,1844.323975 
	C464.079712,1845.131714 465.011200,1845.614746 465.942688,1846.097778 
	C465.942688,1846.097778 465.975006,1846.028564 466.084045,1846.363892 
	C469.781311,1848.837646 473.369568,1850.976074 476.957794,1853.114502 
	C477.423767,1853.412964 477.889740,1853.711426 478.760315,1854.339478 
	C479.608734,1855.056152 480.052612,1855.443237 480.496460,1855.830322 
	C480.774231,1855.968994 481.067719,1856.024170 481.759094,1856.318237 
	C485.413422,1858.465332 488.685608,1860.289917 491.957794,1862.114624 
	C508.024323,1871.072876 524.090820,1880.031128 540.670898,1889.339600 
	C549.456421,1893.737671 557.728394,1897.785522 566.000366,1901.833374 
	C574.379761,1905.575317 582.773743,1909.285278 591.126648,1913.085327 
	C592.879883,1913.882935 594.482056,1915.012329 596.692749,1916.340454 
	C606.807129,1920.499512 616.382568,1924.307007 625.957947,1928.114624 
	C630.964417,1930.077637 635.974792,1932.030762 640.975830,1934.007568 
	C644.064026,1935.228271 647.118408,1936.536743 650.222473,1937.714966 
	C655.839844,1939.847290 661.483032,1941.911621 667.680725,1944.354248 
	C669.896912,1945.349731 671.515259,1946.100342 673.203918,1946.624146 
	C682.126282,1949.392090 691.066406,1952.102783 700.000366,1954.833374 
z"/>
<path fill="#000000" opacity="1.000000" stroke="none" 
	d="
M2001.000000,937.531372 
	C2000.334717,937.173950 1999.148926,936.387024 1999.083374,935.515808 
	C1998.292603,925.004272 1997.989014,914.447388 1996.916382,903.968018 
	C1995.619507,891.299072 1993.789062,878.681763 1992.040039,866.062866 
	C1990.114380,852.169434 1988.301514,838.250854 1985.916260,824.433472 
	C1983.624023,811.155396 1981.109009,797.883240 1977.898560,784.803223 
	C1971.913574,760.419067 1966.414429,735.836548 1958.772949,711.957397 
	C1948.366333,679.436646 1936.569824,647.336121 1924.511230,615.379089 
	C1918.740967,600.086792 1910.997070,585.539246 1904.056396,569.960083 
	C1899.934204,561.023315 1895.972778,552.745544 1891.831177,544.558899 
	C1890.475708,541.879333 1888.651855,539.436646 1887.042236,536.885559 
	C1885.454224,533.945068 1883.844971,531.015808 1882.285034,528.060486 
	C1881.151733,525.913452 1880.140503,523.700928 1878.974854,521.572388 
	C1876.813599,517.626343 1874.595459,513.710938 1872.369995,509.800476 
	C1870.263306,506.099091 1868.116699,502.420502 1865.876953,498.015259 
	C1861.526978,490.496613 1857.287720,483.694519 1853.020386,476.534363 
	C1847.649048,467.709381 1842.463013,459.137634 1836.914185,450.807404 
	C1832.172974,443.689606 1827.015625,436.849060 1822.042236,429.885895 
	C1819.938354,427.013977 1817.834595,424.142059 1815.372803,420.743530 
	C1812.343018,416.533600 1809.671143,412.850281 1806.999268,409.166992 
	C1806.999268,409.166992 1806.567505,409.017639 1806.287598,408.660706 
	C1805.352661,407.497864 1804.697510,406.691925 1804.042236,405.885986 
	C1804.024170,405.539154 1803.868042,405.273376 1803.290771,404.696228 
	C1802.352539,403.497894 1801.697388,402.691986 1801.042236,401.886047 
	C1801.024170,401.539154 1800.868042,401.273376 1800.289429,400.665710 
	C1799.017456,399.123688 1798.029785,398.004700 1797.042114,396.885681 
	C1796.915649,396.318665 1796.789307,395.751617 1796.335693,394.751129 
	C1795.607422,393.577972 1795.206543,392.838226 1794.805542,392.098511 
	C1794.805542,392.098511 1794.950562,391.828583 1794.745117,391.440796 
	C1793.974243,390.545654 1793.408813,390.038300 1792.843384,389.530945 
	C1792.843384,389.530945 1792.762573,389.248871 1792.446289,388.941895 
	C1790.773315,387.058350 1789.416626,385.481812 1788.060059,383.905273 
	C1788.060059,383.905243 1788.027344,383.974396 1788.015869,383.620178 
	C1786.689575,381.812286 1785.374878,380.358612 1784.060059,378.904907 
	C1784.060181,378.904877 1784.028198,378.973755 1784.016602,378.625702 
	C1783.023560,377.153412 1782.041870,376.029175 1781.060303,374.904907 
	C1781.060303,374.904907 1781.023315,374.975189 1780.919434,374.639587 
	C1777.890991,370.831207 1774.966553,367.358429 1772.042236,363.885681 
	C1767.428955,358.158844 1763.185059,352.081543 1758.139404,346.765076 
	C1734.390503,321.741150 1710.876587,296.466339 1686.362671,272.206696 
	C1671.430054,257.428894 1655.180908,243.908463 1638.898438,230.586761 
	C1619.695923,214.876038 1600.191528,199.476746 1580.121216,184.902100 
	C1562.776978,172.307159 1544.942505,160.226791 1526.456177,149.402390 
	C1497.851929,132.653625 1469.093506,115.963524 1439.311890,101.488304 
	C1409.908447,87.196907 1379.312256,75.291740 1348.949463,63.059174 
	C1312.521484,48.383060 1274.749146,37.758350 1236.653076,28.461952 
	C1216.473267,23.537563 1195.980835,19.828480 1175.538330,16.066362 
	C1158.877808,13.000265 1142.115967,10.423898 1125.333496,8.103933 
	C1114.618530,6.622718 1103.789917,5.938733 1093.001831,5.019341 
	C1083.987549,4.251106 1074.955688,3.689272 1065.939209,2.944504 
	C1065.058228,2.871737 1064.230225,2.155547 1063.688843,1.369006 
	C1376.260376,1.000000 1688.520874,1.000000 2001.000000,1.000000 
	C2001.000000,313.020874 2001.000000,625.041748 2001.000000,937.531372 
z"/>
<path fill="#000000" opacity="1.000000" stroke="none" 
	d="
M937.531372,1.000003 
	C937.176392,1.665263 936.391968,2.851177 935.523193,2.916512 
	C925.006836,3.707386 914.445068,4.011221 903.960938,5.084261 
	C891.286316,6.381487 878.663391,8.212551 866.038696,9.961523 
	C852.139099,11.887125 838.214050,13.698929 824.390503,16.084200 
	C811.107849,18.376129 797.831116,20.891130 784.746826,24.102535 
	C760.355408,30.089119 735.764099,35.585781 711.880066,43.235069 
	C679.350464,53.653267 647.040527,64.983002 615.325195,77.646927 
	C589.858215,87.815880 565.053101,99.839821 540.602600,112.311584 
	C503.074036,131.454315 466.950073,153.166000 432.482422,177.395096 
	C410.871918,192.586273 390.096191,208.994431 369.322296,225.335068 
	C357.197021,234.872772 345.412994,244.927963 334.181458,255.500381 
	C312.537262,275.874451 290.941376,296.339508 270.200409,317.619598 
	C256.107208,332.079132 243.374390,347.880493 230.261551,363.276245 
	C204.739380,393.241669 181.623306,425.016541 160.449600,458.168518 
	C149.348145,475.550262 138.697800,493.246307 128.520996,511.184662 
	C119.132568,527.733459 110.206314,544.579712 101.865410,561.679749 
	C87.354691,591.428772 74.399529,621.853821 62.846081,652.910950 
	C49.661251,688.353455 38.604389,724.422607 29.585480,761.094910 
	C24.662668,781.111877 20.832161,801.415100 17.054867,821.690918 
	C13.654213,839.944824 10.745645,858.301331 8.110407,876.682861 
	C6.575253,887.390991 5.922941,898.230591 5.023439,909.023560 
	C4.230402,918.539246 3.660070,928.073486 2.926564,937.594543 
	C2.889682,938.073181 2.236848,938.504395 1.435400,938.978882 
	C1.000000,626.406250 1.000000,313.812561 1.000000,1.000000 
	C313.020874,1.000000 625.041748,1.000000 937.531372,1.000003 
z"/>
<path fill="#845EF7" opacity="1.000000" stroke="none" 
	d="
M957.454102,2001.000000 
	C959.012573,1997.102539 961.815002,1996.911499 966.858765,2000.668823 
	C963.969421,2001.000000 960.938782,2001.000000 957.454102,2001.000000 
z"/>
<path fill="#845EF7" opacity="1.000000" stroke="none" 
	d="
M1036.449951,2001.000000 
	C1039.521973,1997.294067 1042.027588,1997.085693 1044.947754,2000.630127 
	C1042.299927,2001.000000 1039.599976,2001.000000 1036.449951,2001.000000 
z"/>
<path fill="#000000" opacity="1.000000" stroke="none" 
	d="
M737.114502,903.042114 
	C739.409424,896.846741 741.388794,890.510193 744.082458,884.493347 
	C747.151489,877.638062 750.752869,871.011292 754.333923,864.399597 
	C755.954590,861.407349 758.084900,858.691101 760.332642,855.336426 
	C761.528809,853.635498 762.405762,852.467590 763.219055,851.256897 
	C768.186279,843.862671 773.138977,836.458740 778.096558,829.058044 
	C778.096558,829.058044 778.027344,829.024048 778.351318,828.926453 
	C779.488342,827.566589 780.301392,826.304382 781.114441,825.042114 
	C783.785645,821.554443 786.292053,817.922119 789.184143,814.628418 
	C791.210999,812.320007 793.905945,810.611206 796.054382,808.394104 
	C801.621582,802.649170 806.675354,796.347900 812.631165,791.052917 
	C820.175293,784.346008 828.408386,778.414062 837.029419,772.056885 
	C844.107361,767.849792 850.450867,763.654175 856.908508,759.642212 
	C862.240479,756.329590 867.707397,753.234192 873.114502,750.042542 
	C874.867798,748.799927 876.502625,747.316833 878.405945,746.378540 
	C880.549683,745.321594 882.935425,744.755737 885.985596,743.969849 
	C897.499146,739.920044 908.243042,735.876648 919.380127,731.896545 
	C929.864990,729.342468 939.956543,726.725098 950.048157,724.107788 
	C961.419006,722.755066 972.760376,720.737732 984.168762,720.232910 
	C996.059570,719.706726 1008.023010,720.461914 1019.939026,721.001343 
	C1026.974731,721.319885 1034.078247,721.790283 1040.978638,723.101196 
	C1054.835205,725.733643 1068.881104,728.013794 1082.279907,732.242432 
	C1097.831909,737.150452 1113.149170,743.201294 1127.885498,750.195007 
	C1146.898071,759.218323 1164.434814,770.898254 1180.293457,784.854919 
	C1188.973022,792.493286 1197.777710,800.071472 1205.736938,808.428406 
	C1220.417603,823.842834 1233.049194,840.901978 1243.750610,859.345337 
	C1254.949585,878.645996 1263.811523,898.926819 1270.158569,920.359009 
	C1274.836792,936.155762 1278.802246,952.076050 1279.929565,968.527710 
	C1280.945801,983.357910 1282.142578,998.249512 1281.804688,1013.080872 
	C1281.335205,1033.675171 1277.973755,1054.004883 1272.538452,1073.925171 
	C1267.273804,1093.219482 1260.283203,1111.861206 1251.053589,1129.627197 
	C1241.638916,1147.749390 1230.651489,1164.847534 1217.190918,1180.245239 
	C1209.910156,1188.573730 1202.635010,1196.967773 1194.692261,1204.644165 
	C1179.135498,1219.679321 1161.737061,1232.368530 1143.133057,1243.450562 
	C1117.672974,1258.617065 1090.305908,1268.994141 1061.549561,1275.581787 
	C1049.823120,1278.268066 1037.756104,1279.936157 1025.752197,1280.824097 
	C1011.174255,1281.902466 996.485474,1282.189331 981.871155,1281.805908 
	C972.977905,1281.572632 964.144348,1279.356689 955.264282,1278.179565 
	C951.842346,1277.725952 948.253418,1278.153076 944.937195,1277.358276 
	C937.174622,1275.497925 929.531067,1273.141479 921.251770,1270.606689 
	C914.109375,1268.207275 907.554565,1266.187012 900.999695,1264.166748 
	C895.194580,1262.054199 889.169434,1260.395386 883.640503,1257.713501 
	C876.830322,1254.410278 870.440125,1250.243286 863.855042,1246.472900 
	C861.204346,1244.955200 858.518188,1243.499634 855.335632,1241.667236 
	C853.635437,1240.471069 852.467590,1239.594116 851.256836,1238.780884 
	C843.862732,1233.813721 836.458862,1228.860962 829.058289,1223.903442 
	C829.058289,1223.903442 829.024109,1223.973022 828.926514,1223.648926 
	C827.566711,1222.511719 826.304443,1221.698730 825.042114,1220.885742 
	C822.523804,1218.920898 819.921021,1217.054077 817.504089,1214.971558 
	C812.027344,1210.252441 806.495178,1205.580322 801.282776,1200.579224 
	C798.754395,1198.153320 796.894775,1195.030396 794.369385,1191.745117 
	C792.018494,1189.140015 790.030518,1187.012817 788.042603,1184.885620 
	C783.966248,1180.072876 779.871765,1175.275269 775.824158,1170.438477 
	C774.534851,1168.897949 773.369995,1167.253052 772.057068,1164.970459 
	C767.110779,1156.494141 762.223633,1148.722778 757.412659,1140.904663 
	C754.560547,1136.269775 751.828552,1131.561157 749.042603,1126.885620 
	C749.042603,1126.885620 748.982788,1126.432251 748.974609,1125.855469 
	C747.683350,1122.839111 746.400269,1120.399414 745.059570,1117.586670 
	C742.279114,1110.475952 739.556213,1103.738281 736.782288,1096.629639 
	C735.190063,1092.156494 733.648865,1088.054199 732.107666,1083.951782 
	C730.525269,1078.227783 728.629456,1072.568359 727.430420,1066.765259 
	C725.389709,1056.888794 723.778931,1046.923340 722.004211,1036.992310 
	C721.093933,1031.898804 720.047546,1026.820068 719.411377,1021.691467 
	C719.143555,1019.532410 719.952087,1017.263000 719.969360,1015.041443 
	C720.041870,1005.729919 719.773193,996.409973 720.084167,987.108276 
	C720.274292,981.418884 721.985535,975.733337 721.792786,970.087769 
	C721.377563,957.930908 725.372986,946.690552 727.965271,935.150879 
	C729.052490,930.311462 730.463318,925.544739 731.859131,919.990723 
	C733.698975,913.838440 735.406738,908.440247 737.114502,903.042114 
z"/>
<path fill="#000000" opacity="1.000000" stroke="none" 
	d="
M649.042114,1676.885742 
	C648.172729,1676.208984 647.387451,1675.363037 646.420471,1674.883057 
	C640.343445,1671.864624 634.071167,1669.202759 628.168396,1665.880981 
	C623.025574,1662.987061 618.332397,1659.304321 613.348328,1656.114258 
	C610.296326,1654.160889 607.082703,1652.457397 603.919739,1650.680786 
	C599.915039,1648.431641 595.887939,1646.222168 591.437561,1643.618408 
	C584.002991,1638.549805 577.001343,1633.858276 569.999695,1629.166870 
	C566.247314,1626.522339 562.494934,1623.877808 558.288086,1620.781494 
	C553.915588,1617.124146 549.997375,1613.918335 546.534485,1611.085205 
	C608.843323,1548.776367 671.057983,1486.561768 733.432800,1424.187012 
	C734.326843,1424.667480 735.606506,1425.355103 737.048157,1426.358398 
	C741.126099,1428.820923 745.042053,1430.967896 748.958069,1433.114868 
	C762.032532,1440.084961 774.903137,1447.478516 788.241821,1453.899780 
	C800.254028,1459.682495 812.601562,1464.886963 825.126160,1469.455566 
	C838.947205,1474.497314 853.138184,1478.524658 867.757080,1483.386475 
	C875.897522,1485.463867 883.448914,1487.148560 891.000366,1488.833252 
	C899.058777,1490.555664 907.073730,1492.528198 915.186401,1493.938843 
	C926.085693,1495.833984 937.021057,1497.679932 948.016724,1498.808594 
	C955.449890,1499.571777 963.021729,1498.877808 970.515564,1499.203125 
	C974.044556,1499.356323 977.528137,1500.857422 981.045715,1500.913818 
	C994.363892,1501.127563 1007.693909,1501.251831 1021.007141,1500.917236 
	C1031.028809,1500.665283 1041.040283,1499.766479 1051.039185,1498.946289 
	C1055.976685,1498.541138 1060.890137,1497.755859 1065.788818,1496.980835 
	C1078.160034,1495.023804 1090.524048,1493.017578 1102.869751,1490.907959 
	C1104.383545,1490.649292 1105.769043,1489.640015 1108.041626,1488.977661 
	C1111.586426,1488.651123 1114.400391,1488.667847 1117.001343,1487.931641 
	C1123.331299,1486.140259 1129.562378,1483.999268 1135.833252,1481.999268 
	C1139.992554,1480.999023 1144.148560,1479.984985 1148.314087,1479.011230 
	C1149.112305,1478.824585 1150.055664,1479.011475 1150.748657,1478.662231 
	C1156.234619,1475.896851 1162.044067,1474.322266 1167.972900,1472.705200 
	C1174.836060,1470.833374 1181.139038,1466.960571 1187.764282,1464.142456 
	C1191.435425,1462.581055 1195.316528,1461.518311 1199.016968,1460.018677 
	C1205.130859,1457.541016 1211.374512,1455.271973 1217.199219,1452.219971 
	C1224.764038,1448.256348 1231.893555,1443.470215 1239.367432,1439.321167 
	C1243.147827,1437.222656 1247.274048,1435.747070 1251.972534,1433.878174 
	C1256.083740,1431.662354 1259.466187,1429.558350 1262.848755,1427.454346 
	C1263.859009,1426.841187 1264.869385,1426.228027 1266.349365,1425.304199 
	C1269.572876,1423.017090 1270.859619,1425.368896 1272.396240,1426.905396 
	C1331.587280,1486.088257 1390.771484,1545.278076 1449.975464,1604.447876 
	C1451.950073,1606.421387 1454.119385,1608.200073 1456.151855,1610.028076 
	C1454.779297,1611.679077 1453.832153,1612.818359 1452.885132,1613.957520 
	C1451.659058,1614.733032 1450.433105,1615.508667 1448.748901,1616.638550 
	C1447.155640,1617.981079 1446.020630,1618.969360 1444.885742,1619.957520 
	C1435.935669,1625.798584 1427.131958,1631.880249 1418.005371,1637.430786 
	C1399.137939,1648.905151 1380.405396,1660.658203 1361.039673,1671.239258 
	C1343.368774,1680.894165 1325.162231,1689.658081 1306.786743,1697.913086 
	C1276.018799,1711.735229 1244.417236,1723.479370 1211.740112,1731.985962 
	C1187.274414,1738.354980 1162.715210,1744.445312 1138.004761,1749.763672 
	C1124.003906,1752.776855 1109.634644,1754.145386 1095.393677,1755.959229 
	C1080.632080,1757.839355 1065.833496,1759.444092 1051.031616,1760.983276 
	C1047.356567,1761.365356 1043.606812,1761.029541 1039.012695,1761.023438 
	C1035.409424,1761.309692 1032.684937,1761.596069 1029.960449,1761.882446 
	C1010.961609,1761.916138 991.962708,1761.949829 972.271667,1761.580322 
	C968.719482,1761.173584 965.859497,1761.170166 962.999512,1761.166748 
	C953.422302,1760.777710 943.814636,1760.737549 934.276245,1759.904297 
	C924.209473,1759.024658 914.217163,1757.318604 904.176208,1756.107422 
	C897.365356,1755.285767 890.481384,1754.984375 883.712769,1753.923096 
	C876.061218,1752.723389 868.517517,1750.851074 860.895081,1749.443604 
	C857.998718,1748.908569 854.938660,1749.177856 852.083496,1748.517334 
	C843.300720,1746.485840 834.580811,1744.182251 825.237549,1741.598022 
	C818.425598,1739.863403 812.212646,1738.515015 805.999695,1737.166748 
	C801.039978,1736.084595 795.984924,1735.314087 791.146423,1733.835327 
	C786.003845,1732.263428 781.066467,1730.020142 775.294434,1728.011230 
	C771.366089,1727.023926 768.182861,1726.095337 764.999695,1725.166626 
	C761.939941,1724.106323 758.880188,1723.046021 755.255005,1721.612549 
	C750.459595,1719.881836 746.229675,1718.524292 741.999695,1717.166748 
	C731.614685,1713.420410 721.170349,1709.827881 710.872070,1705.856567 
	C706.418579,1704.139160 702.349487,1701.448486 697.955261,1699.547607 
	C693.175049,1697.479736 688.200378,1695.865601 683.353149,1693.946167 
	C681.874756,1693.360840 680.554932,1692.385742 679.130859,1691.650146 
	C676.722351,1690.406372 674.288757,1689.211304 671.340576,1687.653076 
	C663.557678,1683.835449 656.299927,1680.360474 649.042114,1676.885742 
z"/>
<path fill="#000000" opacity="1.000000" stroke="none" 
	d="
M1423.833252,1269.000732 
	C1434.341309,1249.734497 1445.496826,1230.787598 1455.195557,1211.122314 
	C1467.692993,1185.782593 1477.108154,1159.146362 1483.908691,1131.706421 
	C1488.395752,1113.601929 1492.312744,1095.336060 1495.797974,1077.011719 
	C1497.628662,1067.386963 1498.488281,1057.502441 1498.900024,1047.697998 
	C1499.880371,1024.357178 1500.927002,1000.990295 1500.774292,977.641602 
	C1500.684692,963.922668 1498.857544,950.145325 1496.896973,936.525940 
	C1494.418457,919.307983 1491.625488,902.087341 1487.860718,885.113525 
	C1481.816528,857.862793 1472.987061,831.424866 1461.946411,805.764893 
	C1451.392212,781.235413 1439.377075,757.458191 1424.998047,734.917908 
	C1424.571655,734.249573 1424.276978,733.497131 1424.029785,733.001953 
	C1486.290649,670.744202 1548.380249,608.657654 1610.845703,546.195251 
	C1613.695557,549.766418 1617.063354,553.288818 1619.632446,557.320190 
	C1635.171997,581.703735 1651.214966,605.803162 1665.779541,630.762207 
	C1685.700928,664.901489 1701.533936,701.020752 1715.184692,738.155518 
	C1726.221924,768.180542 1735.552856,798.695679 1742.718994,829.803406 
	C1747.460571,850.386169 1750.658325,871.350830 1753.891357,892.246033 
	C1756.166870,906.953125 1757.545044,921.811462 1758.936401,936.638672 
	C1759.952026,947.463501 1760.621582,958.339172 1760.939209,969.207031 
	C1761.496948,988.294006 1762.153564,1007.400085 1761.846680,1026.483398 
	C1761.597900,1041.949219 1760.479248,1057.444214 1758.862549,1072.833374 
	C1757.124268,1089.380615 1754.405518,1105.826660 1752.026001,1122.304199 
	C1746.537354,1160.314087 1737.785522,1197.602539 1725.356567,1233.901367 
	C1716.652954,1259.319702 1707.230591,1284.556030 1696.702759,1309.265869 
	C1687.983765,1329.730347 1677.764160,1349.623047 1667.160278,1369.201050 
	C1651.663818,1397.812378 1634.170288,1425.231323 1614.413452,1451.147705 
	C1613.929810,1451.782227 1613.620239,1452.549683 1612.794556,1453.697998 
	C1609.538086,1457.679443 1608.454224,1453.833374 1607.279419,1452.661133 
	C1547.075928,1392.593018 1486.947754,1332.449097 1426.819946,1272.305054 
	C1425.771606,1271.256348 1424.826538,1270.104492 1423.833252,1269.000732 
z"/>
<path fill="#000000" opacity="1.000000" stroke="none" 
	d="
M794.110657,268.045532 
	C804.347168,265.564514 814.533325,262.846283 824.831909,260.657349 
	C840.877747,257.246857 856.967590,254.019669 873.100342,251.049393 
	C885.435364,248.778336 897.831909,246.768768 910.265198,245.128983 
	C918.893372,243.991058 927.660278,243.939560 936.313477,242.950424 
	C965.527466,239.611038 994.861572,239.504684 1024.166626,240.170959 
	C1041.736084,240.570435 1059.280762,242.506699 1076.811035,244.042053 
	C1089.041138,245.113205 1101.278687,246.332596 1113.421143,248.111359 
	C1126.615601,250.044250 1139.838745,252.126907 1152.809448,255.167557 
	C1176.471924,260.714600 1200.135010,266.402618 1223.472046,273.157623 
	C1253.061401,281.722382 1281.786987,292.800354 1309.942383,305.385529 
	C1342.508057,319.942047 1374.177368,336.135040 1404.080811,355.617859 
	C1420.419556,366.262909 1436.474243,377.344727 1452.621582,388.281738 
	C1453.838135,389.105652 1454.771118,390.348358 1455.720459,391.282654 
	C1393.600098,453.397522 1331.517090,515.474915 1269.006836,577.979675 
	C1187.228394,527.392883 1098.173462,500.907257 1001.202759,500.843597 
	C904.183350,500.779907 815.101440,527.133667 733.165222,577.805847 
	C670.883484,515.523743 608.692383,453.332245 546.060120,390.699585 
	C556.164673,383.602203 566.477539,376.196411 576.954224,369.030090 
	C608.558960,347.411560 642.076965,329.119843 677.039917,312.056396 
	C682.728577,309.659271 687.624817,307.104401 692.734070,305.089691 
	C713.338989,296.964600 733.918457,288.759766 754.689392,281.076508 
	C767.661621,276.278046 780.959106,272.359131 794.110657,268.045532 
z"/>
<path fill="#000000" opacity="1.000000" stroke="none" 
	d="
M568.885437,748.957764 
	C560.556641,765.088562 551.696960,780.972839 544.059998,797.424805 
	C537.456116,811.651306 531.593018,826.304382 526.589905,841.168579 
	C521.327820,856.802307 517.005615,872.797791 513.150208,888.846008 
	C509.814484,902.731384 507.582581,916.890198 505.117981,930.972778 
	C504.075714,936.928040 503.276825,942.983826 503.073151,949.017822 
	C502.234711,973.856689 501.096283,998.707581 501.224365,1023.548157 
	C501.295929,1037.427856 503.624969,1051.296875 504.955933,1065.168945 
	C507.012238,1086.601318 511.539917,1107.559448 516.954834,1128.360718 
	C522.756714,1150.648438 529.664795,1172.577271 539.021912,1193.627197 
	C546.072327,1209.487793 553.830322,1225.034424 561.317627,1240.699585 
	C562.151794,1242.444824 563.275024,1244.051880 564.630005,1246.246948 
	C569.052917,1253.509277 573.109924,1260.247559 577.166870,1266.985962 
	C577.436768,1267.762817 577.706665,1268.539551 577.625244,1269.766602 
	C516.768127,1330.725464 456.271423,1391.243286 395.702820,1451.689209 
	C394.224701,1453.164429 391.946777,1453.838257 390.041870,1454.885742 
	C373.711761,1430.031616 356.794556,1405.537354 341.259094,1380.196045 
	C330.991547,1363.447754 322.249908,1345.706177 313.635101,1328.015015 
	C297.351990,1294.575928 284.218750,1259.819824 273.287018,1224.308228 
	C267.142273,1204.347168 262.128082,1184.002441 257.457947,1163.634888 
	C253.934647,1148.268921 251.513382,1132.631958 249.066589,1117.042725 
	C246.737106,1102.201172 244.761688,1087.292480 243.104904,1072.360596 
	C241.979645,1062.219238 241.339386,1051.995850 241.069321,1041.793579 
	C240.506622,1020.537964 240.036377,999.270935 240.113693,978.010803 
	C240.158646,965.650635 241.012466,953.265869 242.091949,940.943909 
	C243.406357,925.940369 244.743530,910.894409 247.149933,896.041626 
	C250.554611,875.027344 254.146896,853.980713 259.119537,833.299072 
	C265.288666,807.641174 272.076813,782.058289 280.230438,756.973694 
	C287.330750,735.129700 296.003296,713.716492 305.265869,692.678589 
	C314.236481,672.303894 324.695007,652.573975 334.804504,632.715942 
	C339.141113,624.197510 344.247742,616.071106 349.358521,607.280884 
	C350.179901,605.877563 350.647278,604.959839 351.114624,604.042175 
	C351.412964,603.576355 351.711304,603.110596 352.374420,602.207153 
	C353.864258,599.860413 354.989319,597.951233 356.114349,596.042053 
	C356.409302,595.596497 356.704224,595.150940 357.340240,594.264221 
	C358.516235,592.647583 359.396576,591.501465 360.178833,590.291931 
	C365.829498,581.554382 371.460297,572.803955 377.097351,564.057617 
	C377.097351,564.057617 377.028351,564.024292 377.360168,563.919250 
	C380.958557,559.541565 384.251801,555.289001 387.484955,550.991211 
	C391.350861,545.852417 391.330780,545.833496 395.712646,550.214905 
	C455.100616,609.597412 514.486877,668.981628 573.882263,728.356689 
	C575.164490,729.638367 576.549866,730.816956 577.887085,732.043640 
	C577.918701,732.470093 577.950317,732.896606 577.623962,733.798218 
	C574.472473,739.168213 571.678955,744.062988 568.885437,748.957764 
z"/>
<path fill="#845EF7" opacity="1.000000" stroke="none" 
	d="
M1423.570312,1269.118164 
	C1424.826538,1270.104492 1425.771606,1271.256348 1426.819946,1272.305054 
	C1486.947754,1332.449097 1547.075928,1392.593018 1607.279419,1452.661133 
	C1608.454224,1453.833374 1609.538086,1457.679443 1612.658447,1454.013794 
	C1612.717773,1458.331177 1610.413452,1458.469116 1607.313599,1456.467529 
	C1606.073242,1455.666504 1605.037842,1454.524902 1603.980103,1453.467407 
	C1544.827759,1394.328613 1485.668335,1335.196899 1426.612183,1275.962036 
	C1424.942139,1274.286621 1424.383911,1271.502686 1423.570312,1269.118164 
z"/>
<path fill="#845EF7" opacity="1.000000" stroke="none" 
	d="
M390.103882,1455.207520 
	C391.946777,1453.838257 394.224701,1453.164429 395.702820,1451.689209 
	C456.271423,1391.243286 516.768127,1330.725464 577.579224,1270.087402 
	C577.249512,1271.808838 577.093567,1274.088745 575.890991,1275.431152 
	C572.007019,1279.767212 567.739624,1283.760010 563.617310,1287.882446 
	C509.084930,1342.415283 454.556488,1396.952148 400.000763,1451.461670 
	C398.128571,1453.332397 396.127319,1455.168579 393.885040,1456.521851 
	C393.122681,1456.982056 391.432251,1455.904175 390.103882,1455.207520 
z"/>
<path fill="#845EF7" opacity="1.000000" stroke="none" 
	d="
M578.058960,731.806763 
	C576.549866,730.816956 575.164490,729.638367 573.882263,728.356689 
	C514.486877,668.981628 455.100616,609.597412 395.712646,550.214905 
	C391.330780,545.833496 391.350861,545.852417 387.484955,550.991211 
	C384.251801,555.289001 380.958557,559.541565 377.376465,563.953918 
	C381.106689,557.758118 385.054810,551.354736 389.341095,545.186401 
	C389.795929,544.531799 392.358002,544.924377 393.711182,545.439209 
	C394.854218,545.874023 395.674408,547.178223 396.615692,548.119446 
	C456.058533,607.558289 515.505432,666.993103 574.901489,726.478699 
	C576.304138,727.883362 577.133911,729.859985 578.058960,731.806763 
z"/>
<path fill="#845EF7" opacity="1.000000" stroke="none" 
	d="
M736.886230,1426.042725 
	C735.606506,1425.355103 734.326843,1424.667480 733.432800,1424.187012 
	C671.057983,1486.561768 608.843323,1548.776367 546.534485,1611.085205 
	C549.997375,1613.918335 553.915588,1617.124146 557.973572,1620.643311 
	C553.771484,1618.370483 549.322632,1615.937378 545.188416,1613.053467 
	C544.462219,1612.546875 544.601685,1609.952026 545.158508,1608.678955 
	C545.785095,1607.246216 547.313110,1606.194092 548.489929,1605.017212 
	C607.732117,1545.767212 666.978699,1486.521606 726.225342,1427.276001 
	C727.049805,1426.451660 727.872864,1425.625488 728.711182,1424.815186 
	C731.928223,1421.706299 734.996460,1421.171265 737.610596,1425.690186 
	C737.257507,1426.028198 737.071838,1426.035522 736.886230,1426.042725 
z"/>
<path fill="#845EF7" opacity="1.000000" stroke="none" 
	d="
M1453.255127,1613.940918 
	C1453.832153,1612.818359 1454.779297,1611.679077 1456.151855,1610.028076 
	C1454.119385,1608.200073 1451.950073,1606.421387 1449.975464,1604.447876 
	C1390.771484,1545.278076 1331.587280,1486.088257 1272.396240,1426.905396 
	C1270.859619,1425.368896 1269.572876,1423.017090 1266.464600,1425.019531 
	C1266.172729,1421.570435 1268.614258,1422.171143 1270.433716,1422.922485 
	C1272.047241,1423.588867 1273.436401,1424.973633 1274.714722,1426.251099 
	C1334.650146,1486.145752 1394.564575,1546.061523 1454.473511,1605.982666 
	C1459.110718,1610.620850 1458.957642,1611.824951 1453.255127,1613.940918 
z"/>
<path fill="#845EF7" opacity="1.000000" stroke="none" 
	d="
M793.763306,267.897949 
	C780.959106,272.359131 767.661621,276.278046 754.689392,281.076508 
	C733.918457,288.759766 713.338989,296.964600 692.734070,305.089691 
	C687.624817,307.104401 682.728577,309.659271 677.367004,311.899597 
	C678.304077,310.431732 679.345093,308.418030 680.954712,307.725403 
	C693.752136,302.218079 706.558655,296.705109 719.554932,291.693207 
	C735.799133,285.428802 752.183350,279.517639 768.595825,273.704132 
	C775.455444,271.274323 782.525330,269.424744 789.544189,267.471313 
	C790.717957,267.144592 792.119629,267.636658 793.763306,267.897949 
z"/>
<path fill="#845EF7" opacity="1.000000" stroke="none" 
	d="
M1822.057373,430.263306 
	C1827.015625,436.849060 1832.172974,443.689606 1836.914185,450.807404 
	C1842.463013,459.137634 1847.649048,467.709381 1852.866455,476.738037 
	C1852.493774,477.533142 1852.246826,477.766571 1852.000000,478.000031 
	C1842.700439,463.882263 1833.374756,449.781525 1824.140259,435.621399 
	C1823.174927,434.141144 1822.748779,432.309357 1822.057373,430.263306 
z"/>
<path fill="#845EF7" opacity="1.000000" stroke="none" 
	d="
M1571.736572,1822.057373 
	C1565.150879,1827.015625 1558.310181,1832.172852 1551.192505,1836.914185 
	C1542.862305,1842.463013 1534.290649,1847.649170 1525.261963,1852.866699 
	C1524.466797,1852.493896 1524.233398,1852.246948 1524.000000,1852.000000 
	C1538.117676,1842.700439 1552.218384,1833.374634 1566.378540,1824.140137 
	C1567.858765,1823.174805 1569.690552,1822.748901 1571.736572,1822.057373 
z"/>
<path fill="#845EF7" opacity="1.000000" stroke="none" 
	d="
M1336.754395,1942.895508 
	C1328.015503,1946.394897 1319.006470,1949.730347 1309.950073,1952.932007 
	C1306.619873,1954.109375 1303.177856,1954.970215 1299.393188,1955.904297 
	C1299.996704,1954.840576 1300.820679,1953.350220 1302.018066,1952.933838 
	C1312.344604,1949.343750 1322.728149,1945.915283 1333.128784,1942.543945 
	C1334.122192,1942.222168 1335.347656,1942.616577 1336.754395,1942.895508 
z"/>
<path fill="#845EF7" opacity="1.000000" stroke="none" 
	d="
M749.035889,1127.296143 
	C751.828552,1131.561157 754.560547,1136.269775 757.412659,1140.904663 
	C762.223633,1148.722778 767.110779,1156.494141 771.899414,1164.642700 
	C768.737366,1161.269653 765.305237,1157.764160 762.622864,1153.756958 
	C758.308899,1147.312378 754.373169,1140.602661 750.541138,1133.855347 
	C749.538147,1132.089233 749.506836,1129.771240 749.035889,1127.296143 
z"/>
<path fill="#845EF7" opacity="1.000000" stroke="none" 
	d="
M460.891541,1842.769165 
	C450.962280,1836.567017 440.944580,1830.053223 430.985565,1823.450806 
	C428.289459,1821.663330 425.770996,1819.607788 423.028778,1817.359131 
	C426.928497,1819.199219 431.138672,1821.094116 434.976410,1823.566895 
	C442.485992,1828.405640 449.820770,1833.519409 457.146576,1838.635986 
	C458.563538,1839.625488 459.608582,1841.147583 460.891541,1842.769165 
z"/>
<path fill="#845EF7" opacity="1.000000" stroke="none" 
	d="
M1464.702881,1887.035645 
	C1462.563354,1888.651855 1460.120483,1890.475586 1457.440918,1891.831177 
	C1449.254272,1895.972656 1440.976685,1899.934204 1432.367188,1903.899658 
	C1433.137329,1902.495361 1434.013794,1900.663086 1435.455566,1899.901245 
	C1443.219849,1895.798218 1451.090698,1891.890259 1459.010010,1888.092773 
	C1460.579590,1887.340210 1462.521362,1887.363525 1464.702881,1887.035645 
z"/>
<path fill="#845EF7" opacity="1.000000" stroke="none" 
	d="
M872.703857,750.035828 
	C867.707397,753.234192 862.240479,756.329590 856.908508,759.642212 
	C850.450867,763.654175 844.107361,767.849792 837.356995,771.899475 
	C837.783386,770.671997 838.311096,769.119690 839.391846,768.411987 
	C847.799011,762.907227 856.238464,757.441711 864.845703,752.259399 
	C866.996216,750.964539 869.793335,750.743591 872.703857,750.035828 
z"/>
<path fill="#845EF7" opacity="1.000000" stroke="none" 
	d="
M1887.035522,537.296997 
	C1888.651855,539.436646 1890.475708,541.879333 1891.831177,544.558899 
	C1895.972778,552.745544 1899.934204,561.023315 1903.899536,569.632996 
	C1902.116821,568.122314 1899.953735,566.488525 1898.767822,564.320251 
	C1895.273682,557.931641 1892.056396,551.382812 1888.970215,544.784668 
	C1887.948853,542.600952 1887.655273,540.076843 1887.035522,537.296997 
z"/>
<path fill="#845EF7" opacity="1.000000" stroke="none" 
	d="
M1842.773926,1541.111328 
	C1835.662476,1552.028809 1828.210449,1563.015503 1820.400391,1574.058350 
	C1825.240479,1565.705811 1830.317993,1557.218750 1835.703613,1548.931763 
	C1837.550171,1546.090210 1840.167847,1543.749878 1842.773926,1541.111328 
z"/>
<path fill="#845EF7" opacity="1.000000" stroke="none" 
	d="
M918.986938,731.833252 
	C908.243042,735.876648 897.499146,739.920044 886.377441,743.898132 
	C887.733765,742.390320 889.246765,740.380005 891.240356,739.603577 
	C899.838074,736.255127 908.576721,733.268433 917.747986,730.308105 
	C918.483643,730.921753 918.735291,731.377502 918.986938,731.833252 
z"/>
<path fill="#845EF7" opacity="1.000000" stroke="none" 
	d="
M699.871826,1954.521973 
	C691.066406,1952.102783 682.126282,1949.392090 673.203918,1946.624146 
	C671.515259,1946.100342 669.896912,1945.349731 668.068115,1944.375122 
	C669.166870,1943.851074 670.598267,1943.179443 671.696045,1943.535767 
	C680.345642,1946.343506 688.941833,1949.318359 697.521179,1952.336670 
	C698.375854,1952.637207 699.007935,1953.570679 699.871826,1954.521973 
z"/>
<path fill="#845EF7" opacity="1.000000" stroke="none" 
	d="
M376.757690,564.124512 
	C371.460297,572.803955 365.829498,581.554382 360.178833,590.291931 
	C359.396576,591.501465 358.516235,592.647583 357.362183,593.968262 
	C357.700195,592.095398 357.964783,589.822205 359.082336,588.103577 
	C363.948547,580.620544 369.040222,573.283264 374.121490,565.942505 
	C374.642639,565.189697 375.641022,564.767212 376.757690,564.124512 
z"/>
<path fill="#845EF7" opacity="1.000000" stroke="none" 
	d="
M919.380127,731.896545 
	C918.735291,731.377502 918.483643,730.921753 918.115967,730.233032 
	C925.894470,727.877136 933.753235,725.603638 941.704773,723.721741 
	C944.136780,723.146118 946.823181,723.645752 949.720642,723.880371 
	C939.956543,726.725098 929.864990,729.342468 919.380127,731.896545 
z"/>
<path fill="#845EF7" opacity="1.000000" stroke="none" 
	d="
M1902.510010,1434.093628 
	C1898.118896,1443.604980 1893.404419,1453.210327 1888.366577,1462.964600 
	C1888.772705,1460.463013 1889.162109,1457.654907 1890.300903,1455.193604 
	C1892.877075,1449.625977 1895.748535,1444.188965 1898.662842,1438.786743 
	C1899.568237,1437.108521 1900.997314,1435.712769 1902.510010,1434.093628 
z"/>
<path fill="#845EF7" opacity="1.000000" stroke="none" 
	d="
M1391.709717,1921.041870 
	C1388.287964,1923.024658 1384.560425,1925.236816 1380.611084,1926.932007 
	C1375.421997,1929.159424 1370.058105,1930.979980 1364.384521,1932.904419 
	C1364.544067,1932.034180 1364.917603,1930.786377 1365.658691,1930.504517 
	C1374.175171,1927.265259 1382.747681,1924.172729 1391.709717,1921.041870 
z"/>
<path fill="#845EF7" opacity="1.000000" stroke="none" 
	d="
M625.847473,1927.786377 
	C616.382568,1924.307007 606.807129,1920.499512 597.060913,1916.369141 
	C599.926086,1916.693481 603.159546,1916.880005 605.958557,1918.079834 
	C612.660095,1920.952271 619.157288,1924.301514 625.847473,1927.786377 
z"/>
<path fill="#845EF7" opacity="1.000000" stroke="none" 
	d="
M777.739624,829.078857 
	C773.138977,836.458740 768.186279,843.862671 763.219055,851.256897 
	C762.405762,852.467590 761.528809,853.635498 760.362183,854.968445 
	C760.762207,853.144897 761.182739,850.993225 762.255737,849.241150 
	C765.683716,843.644043 769.250000,838.122925 772.997375,832.735535 
	C774.042114,831.233521 775.898560,830.296082 777.739624,829.078857 
z"/>
<path fill="#845EF7" opacity="1.000000" stroke="none" 
	d="
M829.079956,1224.260010 
	C836.458862,1228.860962 843.862732,1233.813721 851.256836,1238.780884 
	C852.467590,1239.594116 853.635437,1240.471069 854.968384,1241.637695 
	C853.008850,1241.147583 850.699524,1240.658569 848.837097,1239.469604 
	C842.898193,1235.678833 837.090820,1231.676758 831.322083,1227.629028 
	C830.353943,1226.949707 829.830444,1225.636841 829.079956,1224.260010 
z"/>
<path fill="#845EF7" opacity="1.000000" stroke="none" 
	d="
M1135.409668,1481.999634 
	C1129.562378,1483.999268 1123.331299,1486.140259 1117.001343,1487.931641 
	C1114.400391,1488.667847 1111.586426,1488.651123 1108.434326,1488.905029 
	C1109.867065,1487.994385 1111.658691,1486.816895 1113.615967,1486.377441 
	C1120.709229,1484.784424 1127.858154,1483.438965 1135.409668,1481.999634 
z"/>
<path fill="#845EF7" opacity="1.000000" stroke="none" 
	d="
M565.906494,1901.510010 
	C557.728394,1897.785522 549.456421,1893.737671 541.035278,1889.366455 
	C550.287720,1890.848022 558.274109,1895.557617 565.906494,1901.510010 
z"/>
<path fill="#845EF7" opacity="1.000000" stroke="none" 
	d="
M1523.652344,1852.071045 
	C1524.233398,1852.246948 1524.466797,1852.493896 1524.903809,1852.894531 
	C1518.305298,1857.287720 1511.503296,1861.526978 1504.350342,1865.799683 
	C1504.516846,1864.687866 1504.716675,1863.026611 1505.603027,1862.481079 
	C1511.420898,1858.900391 1517.386963,1855.560425 1523.652344,1852.071045 
z"/>
<path fill="#845EF7" opacity="1.000000" stroke="none" 
	d="
M838.750610,1986.893555 
	C835.423401,1986.871704 831.704407,1986.940552 828.055847,1986.466675 
	C822.804016,1985.784546 817.603516,1984.707886 812.170105,1983.457520 
	C817.737671,1983.519287 823.539185,1983.728271 829.285583,1984.405518 
	C832.369385,1984.768799 835.358398,1985.936646 838.750610,1986.893555 
z"/>
<path fill="#845EF7" opacity="1.000000" stroke="none" 
	d="
M1852.071045,478.347137 
	C1852.246826,477.766571 1852.493774,477.533142 1852.894531,477.096069 
	C1857.287720,483.694519 1861.526978,490.496613 1865.799805,497.649658 
	C1864.687622,497.482788 1863.026001,497.282501 1862.480225,496.395538 
	C1858.899658,490.577911 1855.560181,484.611847 1852.071045,478.347137 
z"/>
<path fill="#845EF7" opacity="1.000000" stroke="none" 
	d="
M890.863342,1488.514648 
	C883.448914,1487.148560 875.897522,1485.463867 868.152527,1483.447388 
	C868.865662,1482.781006 869.906250,1481.973145 870.658081,1482.185791 
	C877.376465,1484.086914 884.043884,1486.167969 890.863342,1488.514648 
z"/>
<path fill="#845EF7" opacity="1.000000" stroke="none" 
	d="
M768.863281,1973.514648 
	C761.448914,1972.148438 753.897461,1970.463745 746.152466,1968.447388 
	C746.865662,1967.781128 747.906250,1966.973145 748.658020,1967.185913 
	C755.376404,1969.086914 762.043823,1971.167969 768.863281,1973.514648 
z"/>
<path fill="#845EF7" opacity="1.000000" stroke="none" 
	d="
M1255.738281,1967.889404 
	C1248.636353,1970.067261 1241.229126,1972.021973 1233.410767,1973.904785 
	C1233.356323,1973.290039 1233.627075,1972.363525 1234.082764,1972.261230 
	C1241.185303,1970.666626 1248.311890,1969.178833 1255.738281,1967.889404 
z"/>
<path fill="#845EF7" opacity="1.000000" stroke="none" 
	d="
M577.325317,1266.701416 
	C573.109924,1260.247559 569.052917,1253.509277 564.940796,1246.406494 
	C565.855774,1246.611572 567.263367,1246.942261 567.725830,1247.788940 
	C571.085388,1253.939941 574.254456,1260.194702 577.325317,1266.701416 
z"/>
<path fill="#845EF7" opacity="1.000000" stroke="none" 
	d="
M570.087280,1629.490112 
	C577.001343,1633.858276 584.002991,1638.549805 591.059570,1643.599487 
	C584.134583,1639.242920 577.154724,1634.528076 570.087280,1629.490112 
z"/>
<path fill="#845EF7" opacity="1.000000" stroke="none" 
	d="
M649.139771,1677.216553 
	C656.299927,1680.360474 663.557678,1683.835449 670.964355,1687.633789 
	C663.821350,1684.487183 656.529419,1681.017212 649.139771,1677.216553 
z"/>
<path fill="#845EF7" opacity="1.000000" stroke="none" 
	d="
M736.833313,1097.000488 
	C739.556213,1103.738281 742.279114,1110.475952 744.780273,1117.597168 
	C744.372375,1117.986938 744.186218,1117.993530 744.000000,1118.000000 
	C741.018066,1111.252686 738.036072,1104.505493 735.332642,1097.379150 
	C736.018494,1097.000244 736.425903,1097.000366 736.833313,1097.000488 
z"/>
<path fill="#845EF7" opacity="1.000000" stroke="none" 
	d="
M901.096436,1264.495239 
	C907.554565,1266.187012 914.109375,1268.207275 920.852600,1270.556030 
	C920.625488,1271.142456 920.150635,1271.687378 919.803284,1271.615601 
	C913.270752,1270.266602 906.306580,1270.060303 901.096436,1264.495239 
z"/>
<path fill="#845EF7" opacity="1.000000" stroke="none" 
	d="
M1864.772217,1505.112427 
	C1861.658813,1510.948853 1858.203003,1516.855347 1854.431274,1522.901855 
	C1854.252808,1521.682495 1853.936768,1520.022217 1854.604980,1519.015381 
	C1857.731445,1514.305786 1861.129150,1509.776489 1864.772217,1505.112427 
z"/>
<path fill="#845EF7" opacity="1.000000" stroke="none" 
	d="
M806.133423,1737.482178 
	C812.212646,1738.515015 818.425598,1739.863403 824.839783,1741.548096 
	C818.091125,1743.700684 812.035767,1741.407715 806.133423,1737.482178 
z"/>
<path fill="#845EF7" opacity="1.000000" stroke="none" 
	d="
M736.763184,903.119263 
	C735.406738,908.440247 733.698975,913.838440 731.912109,919.618408 
	C731.349182,919.576660 730.373901,918.972168 730.453491,918.755859 
	C732.371277,913.544189 734.401794,908.374023 736.763184,903.119263 
z"/>
<path fill="#845EF7" opacity="1.000000" stroke="none" 
	d="
M569.245728,748.932861 
	C571.678955,744.062988 574.472473,739.168213 577.574951,734.116211 
	C577.605652,740.315735 574.598572,745.161560 569.245728,748.932861 
z"/>
<path fill="#845EF7" opacity="1.000000" stroke="none" 
	d="
M736.782288,1096.629761 
	C736.425903,1097.000366 736.018494,1097.000244 735.305542,1097.000000 
	C733.888977,1092.851196 732.777954,1088.702271 731.887329,1084.252686 
	C733.648865,1088.054199 735.190063,1092.156494 736.782288,1096.629761 
z"/>
<path fill="#845EF7" opacity="1.000000" stroke="none" 
	d="
M742.096924,1717.494995 
	C746.229675,1718.524292 750.459595,1719.881836 754.865356,1721.561890 
	C749.810669,1723.530273 745.760864,1721.440918 742.096924,1717.494995 
z"/>
<path fill="#845EF7" opacity="1.000000" stroke="none" 
	d="
M1772.057129,364.261536 
	C1774.966553,367.358429 1777.890991,370.831207 1780.954590,374.621338 
	C1775.307129,373.939148 1773.648682,369.324219 1772.057129,364.261536 
z"/>
<path fill="#845EF7" opacity="1.000000" stroke="none" 
	d="
M1592.741943,1807.058838 
	C1589.337036,1809.699829 1585.560059,1812.357422 1581.412720,1815.064697 
	C1584.818115,1812.434692 1588.593994,1809.755005 1592.741943,1807.058838 
z"/>
<path fill="#845EF7" opacity="1.000000" stroke="none" 
	d="
M1807.029053,409.521271 
	C1809.671143,412.850281 1812.343018,416.533600 1815.064697,420.587402 
	C1812.429321,417.263763 1809.744141,413.569672 1807.029053,409.521271 
z"/>
<path fill="#845EF7" opacity="1.000000" stroke="none" 
	d="
M1637.741211,1772.057739 
	C1634.641479,1774.966797 1631.168701,1777.891235 1627.378418,1780.954590 
	C1628.026855,1775.264771 1632.944458,1773.951050 1637.741211,1772.057739 
z"/>
<path fill="#845EF7" opacity="1.000000" stroke="none" 
	d="
M320.899292,1733.759033 
	C317.691376,1731.296997 314.425049,1728.479248 311.022583,1725.352295 
	C315.694702,1726.055542 319.007385,1728.848755 320.899292,1733.759033 
z"/>
<path fill="#845EF7" opacity="1.000000" stroke="none" 
	d="
M737.048096,1426.358398 
	C737.071838,1426.035522 737.257507,1426.028198 737.721558,1426.010498 
	C741.607056,1428.139282 745.214111,1430.278564 748.889648,1432.766357 
	C745.042053,1430.967896 741.126099,1428.820923 737.048096,1426.358398 
z"/>
<path fill="#845EF7" opacity="1.000000" stroke="none" 
	d="
M476.888489,1852.773682 
	C473.369568,1850.976074 469.781311,1848.837646 466.049500,1846.380127 
	C470.873749,1845.906982 474.163361,1848.627075 476.888489,1852.773682 
z"/>
<path fill="#845EF7" opacity="1.000000" stroke="none" 
	d="
M1262.427490,1427.384644 
	C1259.466187,1429.558350 1256.083740,1431.662354 1252.350220,1433.799805 
	C1253.563599,1428.941040 1257.521973,1427.724243 1262.427490,1427.384644 
z"/>
<path fill="#845EF7" opacity="1.000000" stroke="none" 
	d="
M765.128113,1725.478027 
	C768.182861,1726.095337 771.366089,1727.023926 774.875610,1728.059814 
	C770.979492,1731.169678 768.221436,1728.046875 765.128113,1725.478027 
z"/>
<path fill="#845EF7" opacity="1.000000" stroke="none" 
	d="
M963.142334,1761.490479 
	C965.859497,1761.170166 968.719482,1761.173584 971.808105,1761.528198 
	C969.092651,1765.467163 966.182983,1764.432739 963.142334,1761.490479 
z"/>
<path fill="#845EF7" opacity="1.000000" stroke="none" 
	d="
M373.920654,1779.739014 
	C370.682892,1777.620972 367.424103,1775.145142 364.025696,1772.356201 
	C367.223969,1774.489258 370.561829,1776.935303 373.920654,1779.739014 
z"/>
<path fill="#845EF7" opacity="1.000000" stroke="none" 
	d="
M491.890289,1861.766479 
	C488.685608,1860.289917 485.413422,1858.465332 481.985291,1856.318604 
	C486.016235,1856.226562 489.819183,1857.164185 491.890289,1861.766479 
z"/>
<path fill="#845EF7" opacity="1.000000" stroke="none" 
	d="
M1030.110229,1762.216553 
	C1032.684937,1761.596069 1035.409424,1761.309692 1038.567139,1761.094971 
	C1036.470215,1764.048340 1033.652710,1765.115845 1030.110229,1762.216553 
z"/>
<path fill="#845EF7" opacity="1.000000" stroke="none" 
	d="
M744.007080,1118.383789 
	C744.186218,1117.993530 744.372375,1117.986938 744.837891,1117.970093 
	C746.400269,1120.399414 747.683350,1122.839111 748.899902,1125.639526 
	C747.226990,1123.589355 745.620544,1121.178467 744.007080,1118.383789 
z"/>
<path fill="#845EF7" opacity="1.000000" stroke="none" 
	d="
M357.926086,1766.720337 
	C355.679443,1765.283447 353.419525,1763.472900 351.023071,1761.352661 
	C354.678864,1760.889648 357.252380,1762.350952 357.926086,1766.720337 
z"/>
<path fill="#845EF7" opacity="1.000000" stroke="none" 
	d="
M332.940918,1744.741211 
	C330.691498,1743.297119 328.425293,1741.479614 326.022675,1739.352539 
	C329.367340,1739.317749 332.315216,1740.297119 332.940918,1744.741211 
z"/>
<path fill="#845EF7" opacity="1.000000" stroke="none" 
	d="
M1877.769531,1482.108887 
	C1876.992554,1484.281738 1875.870361,1486.521240 1874.431641,1488.901123 
	C1872.338623,1485.364990 1874.546265,1483.608643 1877.769531,1482.108887 
z"/>
<path fill="#845EF7" opacity="1.000000" stroke="none" 
	d="
M788.059204,1185.258301 
	C790.030518,1187.012817 792.018494,1189.140015 794.060547,1191.612549 
	C790.012268,1191.843140 788.905396,1188.869263 788.059204,1185.258301 
z"/>
<path fill="#845EF7" opacity="1.000000" stroke="none" 
	d="
M400.891846,1800.768066 
	C398.366180,1799.305908 395.774567,1797.497314 393.044586,1795.374878 
	C395.546112,1796.847900 398.185974,1798.634888 400.891846,1800.768066 
z"/>
<path fill="#845EF7" opacity="1.000000" stroke="none" 
	d="
M355.771454,596.107056 
	C354.989319,597.951233 353.864258,599.860413 352.427124,601.905640 
	C350.166016,598.361450 353.120300,597.449036 355.771454,596.107056 
z"/>
<path fill="#845EF7" opacity="1.000000" stroke="none" 
	d="
M1617.704468,1788.055420 
	C1616.285034,1789.653564 1614.475830,1791.246948 1612.354736,1792.976807 
	C1612.081665,1789.636353 1613.903687,1788.016235 1617.704468,1788.055420 
z"/>
<path fill="#845EF7" opacity="1.000000" stroke="none" 
	d="
M1788.055542,384.297791 
	C1789.416626,385.481812 1790.773315,387.058350 1792.306274,388.898010 
	C1788.717041,389.939087 1788.244751,387.452789 1788.055542,384.297791 
z"/>
<path fill="#845EF7" opacity="1.000000" stroke="none" 
	d="
M1606.745117,1796.058105 
	C1604.996094,1797.695801 1602.878052,1799.349365 1600.408569,1801.049805 
	C1602.163574,1799.422607 1604.269897,1797.748291 1606.745117,1796.058105 
z"/>
<path fill="#845EF7" opacity="1.000000" stroke="none" 
	d="
M1872.784058,1491.107422 
	C1872.322876,1492.617920 1871.531128,1494.193604 1870.427246,1495.905518 
	C1870.894653,1494.418579 1871.674194,1492.795654 1872.784058,1491.107422 
z"/>
<path fill="#845EF7" opacity="1.000000" stroke="none" 
	d="
M1784.072754,379.281677 
	C1785.374878,380.358612 1786.689575,381.812286 1788.050415,383.603882 
	C1786.759521,382.513977 1785.422485,381.086212 1784.072754,379.281677 
z"/>
<path fill="#845EF7" opacity="1.000000" stroke="none" 
	d="
M392.916595,1794.729492 
	C391.347046,1793.951294 389.752472,1792.806030 388.022217,1791.351929 
	C389.554871,1792.149536 391.223206,1793.255981 392.916595,1794.729492 
z"/>
<path fill="#845EF7" opacity="1.000000" stroke="none" 
	d="
M1622.717529,1784.072754 
	C1621.640747,1785.374756 1620.187256,1786.689453 1618.395996,1788.050415 
	C1619.485718,1786.759644 1620.913330,1785.422607 1622.717529,1784.072754 
z"/>
<path fill="#845EF7" opacity="1.000000" stroke="none" 
	d="
M383.930176,1787.747192 
	C382.363007,1786.968872 380.768127,1785.823364 379.039612,1784.369263 
	C380.571503,1785.166992 382.237000,1786.273438 383.930176,1787.747192 
z"/>
<path fill="#845EF7" opacity="1.000000" stroke="none" 
	d="
M378.916992,1783.729980 
	C377.351929,1782.956543 375.762177,1781.816772 374.039185,1780.368896 
	C375.568085,1781.161743 377.230164,1782.262695 378.916992,1783.729980 
z"/>
<path fill="#845EF7" opacity="1.000000" stroke="none" 
	d="
M362.888885,1770.764648 
	C361.362793,1769.969360 359.767944,1768.823730 358.039551,1767.369507 
	C359.544037,1768.178589 361.182098,1769.296387 362.888885,1770.764648 
z"/>
<path fill="#845EF7" opacity="1.000000" stroke="none" 
	d="
M1599.728027,1801.072144 
	C1598.635254,1802.375488 1597.176514,1803.691162 1595.379883,1805.060547 
	C1596.482056,1803.770996 1597.921997,1802.427734 1599.728027,1801.072144 
z"/>
<path fill="#845EF7" opacity="1.000000" stroke="none" 
	d="
M408.854675,1805.778564 
	C407.364136,1805.303711 405.770386,1804.492798 404.031616,1803.362427 
	C405.508209,1803.842773 407.129822,1804.642456 408.854675,1805.778564 
z"/>
<path fill="#845EF7" opacity="1.000000" stroke="none" 
	d="
M1445.248901,1619.941162 
	C1446.020630,1618.969360 1447.155640,1617.981079 1448.624146,1616.938965 
	C1447.842529,1617.898438 1446.727295,1618.911621 1445.248901,1619.941162 
z"/>
<path fill="#845EF7" opacity="1.000000" stroke="none" 
	d="
M1626.733398,1781.072998 
	C1625.970215,1782.041870 1624.846069,1783.023438 1623.389648,1784.051270 
	C1624.162476,1783.093384 1625.267456,1782.089478 1626.733398,1781.072998 
z"/>
<path fill="#845EF7" opacity="1.000000" stroke="none" 
	d="
M825.117004,1221.232666 
	C826.304443,1221.698730 827.566711,1222.511719 828.961365,1223.631836 
	C827.793152,1223.152588 826.492554,1222.366089 825.117004,1221.232666 
z"/>
<path fill="#845EF7" opacity="1.000000" stroke="none" 
	d="
M780.767456,825.117004 
	C780.301392,826.304382 779.488342,827.566589 778.368103,828.961182 
	C778.847473,827.792908 779.633972,826.492432 780.767456,825.117004 
z"/>
<path fill="#845EF7" opacity="1.000000" stroke="none" 
	d="
M1781.072876,375.265900 
	C1782.041870,376.029175 1783.023560,377.153412 1784.051270,378.609863 
	C1783.093384,377.837006 1782.089355,376.731964 1781.072876,375.265900 
z"/>
<path fill="#845EF7" opacity="1.000000" stroke="none" 
	d="
M1797.098633,397.230835 
	C1798.029785,398.004700 1799.017456,399.123688 1800.059692,400.600342 
	C1799.128052,399.830627 1798.141602,398.703308 1797.098633,397.230835 
z"/>
<path fill="#845EF7" opacity="1.000000" stroke="none" 
	d="
M350.809998,604.095825 
	C350.647278,604.959839 350.179901,605.877563 349.413879,606.918457 
	C349.578613,606.077576 350.042023,605.113525 350.809998,604.095825 
z"/>
<path fill="#845EF7" opacity="1.000000" stroke="none" 
	d="
M809.889526,1982.566406 
	C809.092529,1982.799561 808.184753,1982.765991 807.117981,1982.424072 
	C807.898926,1982.176880 808.838867,1982.238281 809.889526,1982.566406 
z"/>
<path fill="#845EF7" opacity="1.000000" stroke="none" 
	d="
M1801.065186,402.229919 
	C1801.697388,402.691986 1802.352539,403.497894 1803.061035,404.630859 
	C1802.438965,404.163208 1801.763550,403.368500 1801.065186,402.229919 
z"/>
<path fill="#845EF7" opacity="1.000000" stroke="none" 
	d="
M1577.770264,1817.065063 
	C1577.308350,1817.697388 1576.502441,1818.352661 1575.369385,1819.061157 
	C1575.836914,1818.438965 1576.631592,1817.763428 1577.770264,1817.065063 
z"/>
<path fill="#845EF7" opacity="1.000000" stroke="none" 
	d="
M465.834351,1845.778931 
	C465.011200,1845.614746 464.079712,1845.131714 463.017365,1844.345947 
	C463.833008,1844.515381 464.779510,1844.987671 465.834351,1845.778931 
z"/>
<path fill="#845EF7" opacity="1.000000" stroke="none" 
	d="
M1804.065186,406.229950 
	C1804.697510,406.691925 1805.352661,407.497864 1806.061157,408.630890 
	C1805.438965,408.163300 1804.763428,407.368622 1804.065186,406.229950 
z"/>
<path fill="#845EF7" opacity="1.000000" stroke="none" 
	d="
M1792.807739,389.878906 
	C1793.408813,390.038300 1793.974243,390.545654 1794.686157,391.299408 
	C1794.145752,391.106140 1793.458984,390.666504 1792.807739,389.878906 
z"/>
<path fill="#845EF7" opacity="1.000000" stroke="none" 
	d="
M1794.711548,392.454559 
	C1795.206543,392.838226 1795.607422,393.577972 1796.061401,394.637878 
	C1795.615479,394.242218 1795.116577,393.526398 1794.711548,392.454559 
z"/>
<path fill="#845EF7" opacity="1.000000" stroke="none" 
	d="
M480.551453,1855.539307 
	C480.052612,1855.443237 479.608734,1855.056152 479.061859,1854.392456 
	C479.508026,1854.493164 480.057220,1854.870605 480.551453,1855.539307 
z"/>
<path fill="#845EF7" opacity="1.000000" stroke="none" 
	d="
M1263.507080,1425.493164 
	C1263.514282,1425.512939 1263.499878,1425.473511 1263.507080,1425.493164 
z"/>
</svg>